<?xml version="1.0" encoding="UTF-8" standalone="no"?>
<svg xmlns:rdf="http://www.w3.org/1999/02/22-rdf-syntax-ns#" xmlns="http://www.w3.org/2000/svg" height="580.31" viewBox="0 0 632.8125 580.3125" width="632.81" version="1.1" xmlns:cc="http://creativecommons.org/ns#" xmlns:dc="http://purl.org/dc/elements/1.1/">
<path d="m205.74 578.01c-4.1416-4.1416-1.1925-18.933 4.1116-20.622 2.5367-0.80762 14.045-24.87 15.491-32.39 0.65307-3.3968 5.8546-16.621 7.195-18.293 0.41853-0.52189 1.6308-3.2737 2.6939-6.1151 4.128-11.033 16.338-20.52 34.301-26.652 4.125-1.408 8.9766-3.3184 10.781-4.2453 1.8047-0.92685 7.0011-3.4113 11.548-5.5211 9.2886-4.3102 15.839-8.6884 18.052-12.066 2.0483-3.1262 1.0748-3.6347-3.2365-1.6905-3.5689 1.6094-7.6126 1.3538-7.6126-0.48114 0-1.944-3.0819-0.6646-6.9192 2.8725-6.251 5.7619-13.208 5.8198-11.391 0.0948 0.61126-1.9259 11.267-10.569 19.184-15.56 11.985-7.5563 13.613-10.428 3.1652-5.5838-7.3851 3.424-27.577 4.846-36.383 2.5622-2.0625-0.53493-6.9141-1.4888-10.781-2.1197-9.3426-1.5242-9.375-1.5372-9.375-3.7657 0-3.6924 8.6931-3.6996 20.625-0.0171 7.1982 2.2216 24.702 0.46051 31.75-3.1943 5.2865-2.7414 1.1776-12.983-6.6047-16.462-1.3809-0.61738-2.7216-1.6721-2.9794-2.3438-1.0561-2.7522-7.0977-6.3934-8.5746-5.1678-4.7685 3.9575 0.48697 14.998 7.1392 14.998 4.3871 0 7.3946 3.7673 4.0363 5.056-12.92 4.9578-25.816-13.299-17.747-25.125l2.4991-3.6631-1.9468-5.3394c-7.0231-19.262 6.2617-36.409 32.741-42.261 2.8359-0.6267 6.4617-2.1301 8.0572-3.341 1.5956-1.2108 3.3836-2.2015 3.9734-2.2015 2.7176 0 24.102-9.6796 29.364-13.292 3.079-2.1135 3.2805-2.1138 3.8318-0.006 1.0991 4.2029-14.5 13.316-29.265 17.097-3.9716 1.017-4.0964 1.1473-2.3438 2.4458 6.4264 4.7611 46.788-15.234 48.746-24.148 0.31312-1.4256 1.1067-3.0381 1.7635-3.5832 0.94392-0.78338 0.54036-2.2901-1.9258-7.1902-1.716-3.4095-3.6129-7.8442-4.2153-9.855-1.4189-4.7358-2.6735-4.6705-2.6735 0.13914 0 7.5436-10.772 20.362-21.758 25.893-9.4118 4.7376-14.145 6.8752-15.215 6.871-1.0208-0.004-18.454 4.8881-32.058 8.9963-8.502 2.5674-14.538 6.417-16.741 10.677-1.7214 3.3288-3.7693 3.589-6.6853 0.84963-4.0784-3.8315-15.46 1.4086-12.691 5.8428 2.9036 4.6494-2.6827 6.7889-6.4405 2.4666-2.8163-3.2393-7.0936-7.5966-8.8137-8.9786-0.85178-0.68435-1.8026-2.5136-2.1128-4.065-0.8082-4.041-2.4363-4.1828-7.247-0.6313-2.3303 1.7204-5.3059 3.886-6.6125 4.8124-3.0178 2.1398-3.03 3.4719-0.0318 3.4719 7.2728 0-4.0099 10.619-17.812 16.764-4.2774 1.9044-16.638 5.7359-18.504 5.7359-0.9086 0-1.652 0.42187-1.652 0.9375 0 4.4314 29.351-4.2548 36.627-10.839 1.9221-1.7395 4.6232-1.7362 4.6232 0.006 0 1.7183-12.524 11.111-16.875 12.656-21.745 7.7215-41.805 3.3581-38.444-8.3621 1.9887-6.9342 6.6071-8.6782 8.8385-3.3376 3.1164 7.4585 29.445-0.0257 30.723-8.7333 0.40327-2.7476-3.1666-7.6396-5.575-7.6396-2.4006 0-4.2466-3.9834-4.6849-10.11l-0.45849-6.408 4.5663-4.6418c4.5002-4.5746 21.714-14.342 27.808-15.779 6.7017-1.5801-4.8578-6.9946-16.466-7.7125-9.4204-0.58263-9.7798-0.46753-22.731 7.2812-4.9532 2.9636-8.8888 8.4085-8.8888 12.298 0 3.8935-2.4883 6.2723-4.2188 4.033-2.66-3.4423-0.93339-11.506 3.4664-16.19 3.9755-4.2317-6.6642-4.1336-17.914 0.16509-8.1623 3.119-10.193 5.2723-10.571 11.209-0.33276 5.2248-1.6403 6.2268-4.454 3.4131-10.246-10.246 13.576-25.235 36.035-22.672 17.756 2.0258 16.814-4.6284-1.664-11.746-9.0148-3.4726-10.173-3.9878-18.258-8.1229-6.8765-3.5168-8.3796-3.3329-9.5932 1.1742-0.54673 2.0304-2.7778 5.8885-4.958 8.5735-8.5807 10.568-11.933 15.32-11.933 16.917 0 1.1088-1.1015 1.9717-3.2875 2.5753-1.8081 0.49925-4.9417 2.2179-6.9636 3.8192-4.2503 3.3663-8.8082 5.1779-10.955 4.3541-2.0443-0.78447-8.6748 1.1069-11.879 3.3886-2.0196 1.4381-3.442 1.7319-6.1023 1.2603-1.9079-0.33818-8.3308-0.94893-14.273-1.3572-5.9423-0.40829-11.715-1.23-12.829-1.826-3.499-1.8726-5.4542-1.2863-7.08 2.123-7.5092 15.747-21.215 23.478-32.725 18.46-14.025-6.1146-16.208-21.043-5.394-36.885 4.6119-6.7564 4.1582-7.569-2.3293-4.1723-12.547 6.5692-21.079 16.782-23.336 27.932-1.6933 8.366-5.8973 9.216-5.6926 1.151 0.39069-14.93 17.976-32.73 37.389-37.82 9.5799-2.5153 52.517-1.5262 64.354 1.4824 7.2663 1.8469 11.628 1.6492 17.677-0.80146 7.0016-2.8364 6.8434-4.6966-0.46875-5.5121-9.5058-1.0601-19.324-5.466-30-13.463-6.2515-4.6825-12.597-7.1354-17.663-6.8283l-4.8369 0.2932-0.28273-3.8709-0.28273-3.8709-8.1548-3.7427c-14.326-6.5749-20.599-6.2765-28.036 1.3336-6.0687 6.2101-8.2333 6.5683-7.5192 1.2446 0.56875-4.2404 0.41189-4.3173-4.5947-2.2539-4.0269 1.6596-7.8489 4.8115-7.8489 6.4726 0 1.3813-3.9908 5.1562-5.451 5.1562-4.4945 0 4.7384-12.481 11.406-15.419 8.8704-3.9079 11.812-5.1102 14.67-5.9972 1.8047-0.55996 5.3603-1.6658 7.9014-2.4574 5.9923-1.8668 6.8522-1.8175 7.5667 0.4335 0.32693 1.03 1.7264 2.1354 3.1101 2.4562 1.3836 0.32089 5.4688 2.0655 9.0781 3.877 12.399 6.223 20.156 8.7051 20.156 6.4497 0-1.2581-6.6344-6.2183-8.3171-6.2183-0.95208 0-1.9954-2.2459-1.9954-4.2954 0-2.0316 2.436-1.5955 6.8155 1.22 12.509 8.0419 30.044-4.8886 23.565-17.377-4.3156-8.3181-3.0819-20.782 2.3344-23.585 1.8585-0.96154 4.1132-2.6263 5.0105-3.6994 1.978-2.3656 6.1622-2.549 7.7768-0.34091 1.0572 1.4458 1.3208 1.2671 2.5817-1.7506 1.3095-3.134 1.7432-3.3977 6.4259-3.9063 2.7619-0.30001 6.1818-0.82702 7.5998-1.1712 3.9348-0.95493 3.7261 3.436-0.23437 4.9309-8.0466 3.0373-2.7773 3.6811 6.1844 0.75572 9.469-3.091 17.73-3.0903 29.274 0.003 9.2411 2.4758 15.167 3.0002 15.167 1.3423 0-2.4529-2.0916-4.6282-4.4861-4.6656-8.3408-0.13062-15.201-3.5266-15.201-7.5251 0-0.86957-0.63281-2.1062-1.4062-2.7481-5.7016-4.7319 0.0334-8.0367 6.1875-3.5655 3.924 2.851 9.3244 5.3102 11.857 5.3993 2.5056 0.0882 8.6118-6.6331 9.1958-10.122 1.5086-9.0131 4.9981-13.328 4.3528-5.3825-0.59021 7.267 5.2913 1.0184 8.3106-8.8293 4.7922-15.63 24.227-23.341 43.602-17.299 11.655 3.6345 14.939 3.9455 17.471 1.6546 1.7821-1.6128 7.8606-2.6886 20.43-3.6162 9.8431-0.72634 14.255-3.239 5.6873-3.239-3.3261 0-3.7168-0.25284-3.9844-2.5781l-0.29664-2.5781-6.7918 0.31829c-8.7605 0.41055-48.738 3.647-51.802 4.1937-3.6414 0.64981-7.2601 2.2826-9.1367 4.1224-0.94135 0.92293-4.0168 3.4471-6.8343 5.6093-6.5901 5.0574-12.154 10.338-12.154 11.535 0 0.51676-0.42188 0.93955-0.9375 0.93955-4.7459 0 12.006-18.649 20.144-22.424 6.1605-2.8582 13.658-4.7633 18.747-4.7633 2.2616 0 5.2996-0.48818 6.7511-1.0849 1.74-0.71525 11.423-1.1431 28.42-1.2559 24.447-0.16215 28.973-0.51963 31.334-2.4747 1.7699-1.4657 8.1045-5.4971 8.6376-5.4971 0.28248 0 1.5863-0.84375 2.8973-1.875s3.3091-1.875 4.4403-1.875c6.9632 0 13.628-7.8914 13.628-16.136 0-9.4916 7.1297-24.147 14.61-30.031 2.3186-1.8238 5.5594-7.1019 4.8166-7.8446-0.52363-0.52364-12.151 9.7949-13.222 11.734-0.45461 0.82301-1.9884 2.762-3.4084 4.3089-3.0774 3.3522-6.3197 12.178-7.2706 19.791-0.51818 4.1483-1.0886 5.5744-2.3249 5.8125-5.425 1.0448 0.76035-23.648 8.6068-34.359 3.1778-4.3382 10.528-9.0717 25.539-16.447 13.004-6.3897 15.853-8.3783 14.271-9.9606-0.96674-0.96674-12.442 1.3953-13.91 2.8631-1.4295 1.4295-2.3946 1.0421-2.3946-0.9613 0-1.2214 1.2821-2.51 3.75-3.7691 4.5931-2.3432 4.6501-3.0337 0.45433-5.5093-13.165-7.7677 0.91774-31.96 18.62-31.985 10.005-0.01451 11.738 5.8406 1.9546 6.6045-9.3343 0.72888-15.277 4.8781-18.273 12.758-3.3003 8.6805 8.3748 15.197 27.244 15.208 14.138 0.0076 18.754-2.4286 5.8907-3.109-17.91-0.938-30.54-20.207-13.25-20.207 2.4806 0 2.6726 0.26206 2.6726 3.6484 0 3.1953 0.32014 3.7302 2.5781 4.3072 3.7345 0.95428 14.661 0.65346 17.659-0.48616 3.2208-1.2245 5.1034 0.16578 3.553 2.6238-0.94003 1.4903-2.3535 1.9047-11.863 3.4781-5.364 0.88754-3.2045 2.3732 3.3626 2.3134 7.3208-0.06674 12.233-1.6802 12.683-4.1658 0.93339-5.1567 11.194-10.513 27.975-14.605 4.0116-0.97811 5.329-1.8572 7.5903-5.0654 2.7799-3.9439 3.3387-4.2746 22.712-13.443 15.534-7.3511 25.817-8.8995 33.413-5.0309 3.1622 1.6106 5.6672 1.8536 19.854 1.926 19.93 0.1031 38.61 5.1634 38.61 10.462 0 2.5407-3.359 2.3977-12.155-0.51724-3.8491-1.2756-9.1225-2.3501-11.719-2.3878-2.5962-0.03764-6.9825-0.38995-9.7473-0.7829-3.987-0.56666-5.7013-0.37063-8.287 0.94763-2.5894 1.3201-3.7267 1.4495-5.528 0.62877-3.7031-1.6872-7.264 0.7175-6.5103 4.3965 0.32082 1.566 0.67192 4.175 0.78023 5.7978 0.49912 7.4783 12.115 15.012 30.15 19.554 13.272 3.3427 24.119 7.6069 31.897 12.54 2.5361 1.6083 5.1142 2.9243 5.729 2.9243 0.61484 0 3.169 1.9171 5.6758 4.2602 2.5069 2.3431 5.8236 5.4315 7.3704 6.863 9.8815 9.1449 13.009 36.689 4.1656 36.689-1.6793 0-1.8222-0.7154-1.8262-9.1406-0.005-10.546-1.9931-16.776-7.5017-23.505-3.65-4.465-17.77-15.166-20-15.166-0.79166 0-1.7038-0.4279-2.0271-0.9509-0.83975-1.3588-7.6251-4.697-8.2589-4.0632-0.29185 0.29184 0.4713 2.0667 1.6959 3.9442s2.4977 5.1011 2.8292 7.1636c1.0006 6.2256 2.5027 9.1929 6.6443 13.125 2.7527 2.6134 4.2673 5.0286 4.9976 7.9688 1.5174 6.1094 2.1986 6.9416 6.2589 7.6468 10.49 1.8221 16.13 7.9106 11.154 12.041-1.8802 1.5604-1.7738 3.1041 0.52415 7.6086 2.7396 5.3701 2.1629 8.4803-1.7597 9.4899-4.6553 1.1982-3.1159 2.9741 3.1856 3.675 16.188 1.8006 26.858 10.555 22.66 18.593-1.7598 3.3697-4.2155 3.5086-5.4718 0.30943-3.7619-9.5795-4.8184-10.434-15.857-12.828-16.65-3.6105-38.497-2.2219-42.363 2.6925-1.3204 1.6786-2.7413 2.3341-5.0594 2.3341-3.7632 0-13.047 4.0028-10.455 4.5078 1.54 0.30004 5.6532-0.28811 18.502-2.6457 10.186-1.8689 38.989-1.0778 44.062 1.2102 3.701 1.6689 7.4988 5.5361 7.5128 7.6499 0.0391 5.9103 1.2189 6.9198 11.167 9.5548 18.684 4.949 23.276 19.266 13.04 40.66-2.3435 4.8984-4.5493 9.8177-4.9019 10.932-0.35258 1.114-1.6512 2.6874-2.8858 3.4963-4.0498 2.6535-7.1487 7.6742-7.6035 12.319-0.76849 7.8476-7.8911 13.322-7.8911 6.0655 0-6.638-5.264-1.0106-6.9956 7.4785-0.92039 4.5122-2.3906 8.3535-4.1265 10.781-2.0566 2.8763-2.7917 5.1099-3.0968 9.4101-0.7602 10.715-4.7352 16.102-14.255 19.321-6.2269 2.1056-6.9563 3.3346-5.333 8.9853 3.5889 12.493 1.8983 15.297-11.987 19.881-9.1612 3.0243-12.761 3.5343-13.742 1.9469-1.2952-2.0956 0.75958-4.4525 5.6484-6.4788 10.684-4.4283 13.459-11.519 5.6068-14.328-6.0681-2.1712-6.0938-2.1666-6.0938 1.0724 0 3.8548-1.5368 4.398-5.9963 2.1195-2.1161-1.0812-5.0439-2.216-6.5063-2.5219-1.4624-0.30582-3.7476-1.6448-5.0782-2.9754l-2.4193-2.4193-7.6963 1.6151c-5.8235 1.2221-8.1658 1.3638-9.6258 0.58247-1.0612-0.56796-3.9612-1.0648-6.4443-1.104-6.3214-0.0999-10.728-1.9152-12.516-5.1562-2.9124-5.2784-9.2625-2.7784-17.208 6.7748-4.9455 5.9462-3.6013 12.784 1.5852 8.0635 2.9561-2.6905 6.2165-4.2109 7.7599-3.6186 2.4399 0.93629 1.3378 3.8199-2.4974 6.5339-2.8192 1.9951-3.6077 3.076-3.0777 4.2188 1.7608 3.7963 0.69177 7.4886-3.7198 12.847-2.4192 2.9386-4.659 6.4474-4.9772 7.7973-2.0729 8.7923-19.254 21.987-31.275 24.018-6.6506 1.1236-7.536-3.1545-1.0837-5.2367 15.144-4.887 25.918-15.336 23.365-22.66-0.66771-1.9154-0.63604-3.0253 0.10754-3.7689 1.2723-1.2723 1.385-4.1138 0.1924-4.8508-0.7582-0.46858-6.8667 0.83463-19.295 4.1164-40.48 10.689-51.974 12.123-61.807 7.7115-5.7923-2.599-6.1287-2.1562-6.1476 8.0936-0.0341 18.496-19.835 32.817-45.603 32.982-5.0049 0.032-5.9543 2.5435-1.6425 4.3451 6.5088 2.7195 12.567 1.3883 27.075-5.9492 15.895-8.0394 21.873-15.091 23.46-27.674 1.1156-8.849 6.0512-3.9408 6.0663 6.0327 0.0288 18.993-53.694 44.869-60.796 29.283-1.3432-2.9481-4.38-1.6406-10.894 4.6901-8.5077 8.2685-6.7095 8.592 21.07 3.7904 25.748-4.4505 47.167-18.256 55.222-35.593 1.677-3.6094 3.5538-7.6068 4.1708-8.8832 3.7911-7.8435 8.6976-5.3759 8.8794 4.4656 0.065 3.5158 0.78204 8.2684 1.5936 10.561 3.7394 10.565 3.4627 32.466-0.45494 36.011-1.0056 0.91005-3.1503 5.6226-4.7659 10.472-3.05 9.17-5.18 11.58-10.26 11.58-1.3464 0-2.2808 0.89064-2.9508 2.8125-1.1257 3.2291-5.1731 3.9275-7.7613 1.3393-3.2981-3.2981-0.80214-6.9372 4.7933-6.9885 2.7791-0.0255 5.0109-3.4324 6.4325-9.8196 0.3443-1.5469 1.415-4.5077 2.3794-6.5795 7.1707-15.406 5.6302-42.032-1.882-32.529-4.6466 5.8784-18.293 16.997-20.939 17.06-0.39118 0.009-2.4607 1.2844-4.5989 2.8333-5.5199 3.9986-11.992 5.8016-36.799 10.251-3.0508 0.54723-6.8477 0.99732-8.4375 1.0002-9.985 0.0181-13.005 4.4394-5.433 7.9551 3.0264 1.4053 3.9532 2.3321 3.75 3.75-0.61233 4.2718-9.8094 2.2391-12.964-2.8653-2.6037-4.2128-5.4973-4.8824-10.295-2.3819-2.0833 1.0859-4.3626 1.9744-5.065 1.9744-2.4251 0-2.4498 2.8523-0.0429 4.9675 1.2916 1.1351 3.5011 3.1198 4.9099 4.4106 1.4089 1.2907 4.132 3.5182 6.0515 4.95 1.9194 1.4318 4.7874 4.489 6.3732 6.7939 3.4608 5.0301 3.7158 5.0559 9.7558 0.98534 7.0945-4.7812 10.468-5.2078 11.991-1.5162l1.2022 2.9141 5.1562-3.2911c2.8359-1.8101 6.3164-3.3019 7.7344-3.3151 2.4151-0.0225 2.5781-0.28279 2.5781-4.1163 0-5.2032 2.7686-9.0327 6.5302-9.0327 3.1907 0 3.9868 1.6674 2.7719 5.8057-1.4786 5.0364-0.18475 9.1982 5.0445 16.226 15.077 20.261 14.913 29.071-0.48105 25.891-4.8178-0.99509-5.8698-0.92083-9.4105 0.66429l-3.9864 1.7846 3.2812 0.54325c1.8047 0.29879 6.0234 0.88315 9.375 1.2986 5.6909 0.70541 6.113 0.9216 6.3843 3.2704 0.46161 3.9956-2.2309 4.8579-10.883 3.4853-20.242-3.2113-38.465 0.28249-47.994 9.2016-3.1547 2.9527-25.353 13.392-28.478 13.392-0.96533 0-6.8598 2.147-14.959 5.4488-9.5442 3.8907-26.946 29.773-30.69 45.645-1.8721 7.937-5.6694 18.509-8.4972 23.658-3.5021 6.376-3.5298 8.1359-0.11748 7.4458 1.418-0.28674 10.172-1.4222 19.453-2.5231 9.2812-1.101 19.617-2.3708 22.969-2.8218 13.983-1.8817 28.93-2.7903 46.042-2.7989l18.177-0.009 4.0923-3.2532c10.134-8.0558 11.084-11.98 7.1503-29.541-2.0323-9.0735-1.396-16.011 2.4077-26.25 1.6281-4.3828 3.2306-9.0234 3.5612-10.312 2.3518-9.172 10.368-14.938 15.314-11.016 3.2563 2.5826 2.4378 6.6725-1.6461 8.2252-1.3717 0.52152-3.0008 2.4745-4.0682 4.877-0.97921 2.2039-3.2713 7.3822-5.0935 11.507-4.4559 10.087-5.079 16.019-2.6708 25.429 3.4392 13.439 1.6661 22.013-6.1126 29.558-7.6445 7.4146-8.4645 7.5888-37.309 7.923-13.922 0.16135-28.688 0.73603-32.812 1.2771-4.125 0.54104-13.406 1.6302-20.625 2.4205-31.469 3.4448-40.796 6.425-39.2 12.526 1.1812 4.5171-3.154 6.0976-6.7799 2.4718zm137.2-133.6c-0.14064-1.8457 0.53799-3.575 2.0235-5.1562 3.6098-3.8425 0.0994-2.9837-6.631 1.6221-7.8755 5.3895-8.0068 6.3112-0.89895 6.3112h5.718zm-47.413-60.436c3.8304-1.3965 4.5851-2.1124 5.5213-5.2372 2.3453-7.828 15.247-18.532 22.542-18.701 0.85937-0.02 1.7399-0.5637 1.9568-1.2082 2.1538-6.4012-13.028-11.13-22.269-6.9359-2.0625 0.93593-5.1836 2.3223-6.9358 3.0808-11.558 5.0033-18.421 16.798-16.093 27.654 1.3131 6.1226 2.109 6.6468 6.9763 4.5948 2.1259-0.89626 5.8618-2.3575 8.3021-3.2472zm52.701-30.887c10.821-3.9278 21.936-13.402 20.99-17.892-0.25729-1.2218-1.2665-0.8863-5.4405 1.8086-2.8185 1.8198-5.733 3.3087-6.4765 3.3087-0.74352 0-4.9765 1.6288-9.4066 3.6194-4.4301 1.9907-9.7397 4.2221-11.799 4.9587-4.3598 1.5594-5.3986 4.1409-2.1847 5.4294 3.6517 1.4641 7.8944 1.0988 14.317-1.2325zm-79.844-8.6148c3.2071-1.3212 7.0968-2.9618 8.6436-3.6457 1.5469-0.68389 3.8635-1.562 5.148-1.9514 4.0523-1.2284 14.253-6.1932 13.753-6.6935-0.26355-0.26356-2.0928 0.0403-4.065 0.67515-1.9722 0.63489-4.8514 1.5625-6.3983 2.0614-1.5469 0.49885-4.0781 1.4715-5.625 2.1615-1.5469 0.68997-5.8714 2.6058-9.61 4.2575-10.482 4.6308-12.085 7.3533-1.8461 3.1351zm-219.34 0.19227c11.708-4.8918 19.254-20.151 13.368-27.028-1.8973-2.2166-3.4683-5.2593-3.8345-7.4269-1.8138-10.736-16.265-5.9388-23.143 7.6822-8.1612 16.162 0.1023 32.417 13.61 26.773zm198.39-24.66c6.4894-5.5264-15.114 2.7722-22.395 8.6025-1.3125 1.0511-3.5466 2.4991-4.9646 3.2178-1.418 0.71872-2.5781 1.827-2.5781 2.4629 0 0.8684 27.619-12.309 29.938-14.283zm-2.0374 8.9724c10.239-5.0256 13.285-6.9147 12.467-7.7324-0.81764-0.81764-2.0444-0.52649-5.0215 1.1917-7.1079 4.1024-18.906 10.39-20.58 10.968-1.5554 0.53702-2.3348 2.2228-1.0277 2.2228 0.33712 0 6.7101-2.9927 14.162-6.6504zm76.84 0.43179c3.234-0.62181 4.9602-3.5186 3.166-5.3128-0.74862-0.74862-2.6069-0.46292-6.7985 1.0452-6.644 2.3905-8.0367 1.9397-4.2025-1.3604 1.4775-1.2716 2.4227-2.5757 2.1005-2.8979-0.65916-0.65916-13.543 1.1564-14.418 2.0319-0.88774 0.88772 5.6707 6.068 7.7562 6.1263 1.0312 0.0289 2.5078 0.47787 3.2812 0.9978 0.77344 0.51993 2.4609 0.72156 3.75 0.44805 1.2891-0.2735 3.7033-0.7587 5.3651-1.0782zm-213.72-6.32c16.448-3.7251 23.434-10.458 7.7892-7.5069-11.786 2.2229-24.554-0.16127-26.365-4.9229-1.5289-4.0213 0.2424-4.5996 5.1963-1.6964 5.7963 3.3968 21.167 3.8088 17.762 0.476-3.7275-3.6476-44.179-9.0899-46.952-6.3169-0.61918 0.61917 2.0685 7.9642 4.8395 13.226 4.3607 8.2798 19.217 10.934 37.73 6.7416zm235.17-2.4971c4.1689-2.0181 6.6499-4.3001 5.7037-5.2462-0.73277-0.73278-10.279 4.6662-10.75 6.08-0.51118 1.5335 0.50255 1.366 5.0467-0.83372zm-18.317-4.6736c0.99735-0.53377 1.8134-1.433 1.8134-1.9983 0-1.4276-13.821-0.47569-15.284 1.0527-0.89337 0.93287-0.32017 1.0413 2.8132 0.53225 2.2807-0.37053 4.6457-0.226 5.625 0.34375 2.1503 1.251 2.8082 1.2601 5.0327 0.0697zm86.601-1.9336c3.1248-0.566 8.0018-1.6039 10.838-2.3065 2.8359-0.70257 8.5312-1.9256 12.656-2.718 24.583-4.7218 27.149-5.6934 26.057-9.8675-0.48788-1.8657-2.151-2.6808-2.151-1.0543 0 0.46046-0.72715 1.1162-1.6159 1.4573-3.5843 1.3754-5.1359-5.3474-2.9319-12.704 0.98041-3.2723 0.89102-3.7461-0.99487-5.2732-2.5943-2.1007-1.8664-4.3646 1.9057-5.927 1.587-0.65737 3.5336-2.6038 4.5129-4.5126 2.1489-4.1886 9.1502-9.153 20.687-14.668 4.8984-2.3418 9.9609-4.7843 11.25-5.4279 5.3528-2.6724 6.9856-15.811 2.343-18.853-8.8536-5.8011-5.6282-25.518 6.3113-38.582 5.2719-5.7683 5.5007-7.3113 1.4494-9.775-1.999-1.2157-3.3479-3.0013-3.9865-5.2772-1.5524-5.533-5.178-7.6502-10.055-5.8719-5.1968 1.8948-5.3347 2.9777-0.64813 5.091 5.4017 2.4358 8.3362 4.9188 8.3362 7.0536 0 2.4011-3.1789 2.374-7.9688-0.0681-4.4247-2.2558-6.012-2.3452-7.4214-0.41772-1.4629 2.0006-3.8833 0.86831-5.2628-2.4622-0.6254-1.5098-1.6132-2.7938-2.1952-2.8533-0.58197-0.0594-1.48-0.20616-1.9956-0.32596-0.51563-0.11979-2.4902-0.28206-4.3879-0.36061-2.8116-0.11635-3.5059-0.5333-3.75-2.2522-0.26309-1.8525-0.92754-2.1449-5.4558-2.4008-3.3307-0.18822-5.8201-0.89197-7.0312-1.9877-1.1124-1.0064-4.1075-1.9445-7.3642-2.3065-6.7034-0.74516-9.042-1.9025-9.042-4.4748 0-2.266 8.2115-1.9606 18.361 0.68296 7.1576 1.8643 8.2502 1.7475 15.075-1.6122 6.7903-3.3428 7.5032-4.0639 5.9127-5.9804-0.61924-0.74613-0.8963-2.5206-0.6157-3.9433 1.5273-7.7434 1.94-7.6769-11.076-1.7862-19.93 9.0199-53.653 13.92-68.906 10.013-1.8049-0.4624-5.8129-1.3401-8.9067-1.9506-3.0938-0.61039-8.9676-2.324-13.053-3.8081-8.8101-3.2003-7.7389-3.9101-10.34 6.8508-1.1634 4.8142-2.748 10.011-3.5213 11.549-1.4925 2.9679-2.486 6.6617-5.0385 18.733-2.5824 12.213-2.3472 42.924 0.39462 51.512 2.3859 7.4731 7.8176 21.731 10.377 27.238 4.9853 10.729 6.762 15.003 8.9693 21.578 4.2237 12.582 6.9892 15.958 15.23 18.589 8.5614 2.7336 15.716 3.1506 25.051 1.4598zm-17.952-33.142c-8.7094-2.722-12.655-6.1367-12.184-10.544 0.35074-3.2831 0.0376-4.2919-1.8917-6.0938-8.6959-8.1215-3.1464-13.94 6.8312-7.1627 4.7261 3.2104 5.194 8.2846 0.76389 8.2846-1.8002 0-1.6124 1.6031 0.60875 5.197 2.9668 4.8004 9.7441 6.517 13.989 3.5435 2.788-1.9528 1.0516-2.9439-5.3427-3.0496-4.3822-0.0725-4.502-0.31178-2.8336-5.6576 1.622-5.1972 7.4801-5.8338 14.053-1.5271 1.3406 0.87842 4.48 2.1012 6.9764 2.7173 9.216 2.2746 6.2018 7.2808-7.9768 13.248-6.4178 2.7012-7.4308 2.7826-12.993 1.0441zm7.0373-35.813c-3.9592-1.1123-3.0486-7.1692 1.306-8.6872 6.4846-2.2605 11.072-0.86479 11.072 3.3688 0 3.4866-7.4714 6.6968-12.378 5.3184zm-12.208-3.3395c-3.5622-2.6823-5.8402-12.462-3.1439-13.496 3.4464-1.3225 9.5172 7.1272 8.7873 12.231-0.3287 2.2982-3.3671 2.9796-5.6434 1.2656zm2.4157-24.668c-0.30169-0.78621 0.47183-3.001 1.7189-4.9219 1.2471-1.9208 2.8134-5.3908 3.4806-7.7112 0.66722-2.3203 2.2039-6.1172 3.4148-8.4375s3.1743-6.7442 4.363-9.8309c1.3399-3.4792 2.7849-5.7322 3.8019-5.9281 2.5719-0.4953 2.0873 4.9678-1.024 11.544-1.4647 3.096-3.2094 7.3148-3.8772 9.375-3.68 11.353-10.25 20.153-11.878 15.91zm69.298-5.4726c-2.6969-0.58667-5.7603-1.805-6.8076-2.7073-1.0472-0.90235-2.5072-1.6406-3.2443-1.6406-1.5571 0-2.8565-1.7194-1.9696-2.6063 0.3336-0.3336 2.3431-0.62193 4.4655-0.64075 4.0346-0.0357 6.4147-3.1425 5.0773-6.6276-0.72752-1.8959-7.9332-1.7966-12.866 0.17727l-3.8803 1.5526 2.2067 1.6645c2.7183 2.0504 1.8191 3.3233-1.1467 1.6234-3.3466-1.9182-5.4594-4.7556-5.4936-7.3774-0.0172-1.3148-0.46689-2.8263-0.99942-3.3589-3.6454-3.6454 1.2053-4.6778 12.117-2.579 2.2952 0.44146 2.9929 0.30883 2.5074-0.47665-0.36993-0.59857-1.1681-1.0271-1.7738-0.95238-3.3886 0.41833-4.5021-0.1619-4.2133-2.1956 0.77121-5.4302 20.208-0.11532 23.143 6.3281 0.70449 1.5469 1.9701 3.8672 2.8125 5.1562 0.84237 1.2891 1.7425 3.5657 2.0003 5.0592 0.25781 1.4935 1.3125 3.181 2.3438 3.75 3.9977 2.2059 3.7853 5.7475-0.29788 4.9669-1.3482-0.25772-2.9425 0.11162-3.6844 0.85354-1.5086 1.5086-3.4758 1.5144-10.296 0.0308zm-72.6-22.633c-0.2598-0.2598-2.9458-0.92961-5.9689-1.4885-3.0231-0.55884-6.3613-1.8241-7.4183-2.8116-1.057-0.98753-2.7655-2.397-3.7967-3.1321-1.7592-1.254-1.7715-1.3767-0.19945-1.986 1.0175-0.39437 2.3351-0.0525 3.3551 0.87054 2.8267 2.5581 7.6256 1.6612 7.6256-1.4251 0-1.6212-0.47198-1.7444-4.5901-1.1981-4.0489 0.53712-4.6598 0.38916-5.1816-1.2549-0.44165-1.3915-1.6748-1.9859-4.8664-2.3456-8.3639-0.94274-8.3272-5.3813 0.0445-5.3813 4.1932 0 5.3396-0.34914 6.1562-1.875 2.0039-3.7444 20.763-1.6528 19.412 2.1644-0.24053 0.67982-1.9148 1.0185-4.2785 0.8655-4.6439-0.30062-5.0684 0.99419-0.8365 2.5511 9.0881 3.3434 14.488 7.284 13.503 9.8529-0.66432 1.7312-6.274 1.9665-7.9088 0.3318-0.61017-0.61016-1.4293-0.78946-1.8203-0.39844-0.39102 0.39101 0.0238 1.1221 0.92187 1.6247 2.0384 1.1408 2.1306 4.179 0.14989 4.939-1.8038 0.69218-3.6646 0.734-4.3019 0.0967zm-113.75 124.11c4.7433-1.2915 20.695-9.0777 22.124-10.799 2.9758-3.5856-9.5172 0.0923-17.385 5.1182-2.5502 1.629-5.0814 2.9646-5.625 2.968-0.54358 0.004-2.254 0.84437-3.8008 1.8688-3.3371 2.2101-1.5276 2.5357 4.6875 0.84352zm-22.123-2.385c1.2104-0.8478 4.9957-2.069 8.4117-2.7138 6.4252-1.2128 14.049-3.7279 15.451-5.0975 1.0945-1.0689-7.3796-4.7098-10.962-4.7098-1.621 0-6.9114 2.0578-12.051 4.6875-5.0386 2.5781-9.9783 4.6875-10.977 4.6875-2.7699 0-4.7818 1.0009-4.7818 2.3788 0 2.4812 11.609 3.0785 14.909 0.76719zm-122.25-6.3996c9.9067-7.6438 15.868-16.314 15.297-22.25-0.28918-3.0088-0.37785-2.9255-3.3634 3.1582-3.7822 7.7069-9.9722 14.73-15.626 17.73-4.835 2.565-5.9185 5.2287-1.6985 4.1756 1.418-0.35386 3.8437-1.6199 5.3906-2.8134zm180.79-1.655c6.7899-4.8126 7.7536-6.3415 3.9971-6.3415-2.3752 0-10.971 5.4198-11.603 7.3158-0.63888 1.9166 4.4467 1.2652 7.6064-0.97429zm20.554-4.1108c10.474-6.4889 12.374-11.342 3.3865-8.6493-4.1994 1.2582-5.7196 2.7535-7.717 7.5905-1.7192 4.1631-0.97428 4.3452 4.3306 1.0588zm-39.479-3.8135c0.85523-0.75087 2.0666-2.6003 2.6919-4.1099 0.62529-1.5096 1.7185-2.7447 2.4294-2.7447 0.71088 0 1.2925-0.43362 1.2925-0.96361 0-1.6364-12.33-0.0195-15.196 1.9927-1.3971 0.98085-3.0846 1.7849-3.75 1.7869-1.7024 0.005-7.3036 3.5365-7.3036 4.605 0 2.2898 17.141 1.8004 19.836-0.56636zm176.11-8.6745c0.007-1.3194 0.26718-3.3482 0.5781-4.5083 0.40159-1.4986 0.15966-2.1094-0.83551-2.1094-2.6844 0-3.6229 2.4134-2.9401 7.5604 0.70131 5.2868 3.1682 4.5596 3.1976-0.94266zm-287.97-0.32574c-2.2424-2.2113-5.6164-5.0379-7.4979-6.2813-2.133-1.4096-4.2506-4.0283-5.625-6.9557-3.3124-7.0556-4.6971-6.7708-4.3585 0.89622 0.32972 7.4659 0.84273 8.0037 12.467 13.07 9.5804 4.1754 9.9355 4.1238 5.0146-0.72897zm-49.21 2.21c3.295-1.2528 3.8285-3.7212 3.5572-16.46-0.34413-16.159-0.72198-16.691-8.696-12.234-7.4384 4.1574-8.6411 5.7654-6.731 8.9991 3.192 5.4037-1.2542 5.772-8.3422 0.69106-1.2849-0.92107-2.8016-0.82998-7.6378 0.45869-4.165 1.1098-7.8797 1.4471-11.99 1.0887-7.1038-0.61932-7.3466-0.89796 7.9814 9.1604 12.675 8.3178 24.027 11.274 31.859 8.2961zm137.95-3.3174c2.3631-1.9467 2.5878-2.468 1.4062-3.2622-2.3719-1.5944-4.3348-1.0874-5.4745 1.4138-2.1982 4.8244-0.48766 5.6016 4.0683 1.8484zm-113.09-6.8605c0.58216-2.7324 1.0585-6.1964 1.0585-7.6979 0-1.5708 0.84065-3.513 1.9799-4.5744l1.9799-1.8445-4.558-2.8617c-4.4875-2.8174-7.1983-3.4442-10.093-2.3335-1.2749 0.48923-1.2293 0.76839 0.34482 2.1094 2.7861 2.3736 5.6587 12.291 5.6587 19.537 0 7.5166 1.7732 6.3759 3.629-2.3346zm356.84-1.0904c6.3616-1.0844 13.152-5.6603 8.3992-5.6603-1.4867 0-12.341 3.1871-16.186 4.7526-2.9399 1.197-1.6108 3.0895 1.5614 2.2231 1.3617-0.3719 4.1634-0.96383 6.2258-1.3154zm64.584-5.0878c3.7563-1.5695 7.4165-8.306 6.9633-12.816l-0.29701-2.9549-3.5156 3.4254c-1.9336 1.884-3.5156 3.7616-3.5156 4.1724 0 0.41089-0.81676 1.4862-1.815 2.3896-5.2519 4.7529-3.9052 8.3256 2.18 5.783zm-86.146-2.9109c7.2408-2.5364 14.869-9.0189 11.399-9.6871-0.93195-0.17947-2.4346 0.34347-3.3391 1.1621-0.90459 0.81863-2.3412 1.4884-3.1925 1.4884-4.4638 0-12.836 5.5079-12.836 8.4446 0 1.291 0.53257 1.1969 7.9688-1.408zm-292.24-4.6928c0.31094-2.244-3.8961-7.0376-6.1571-7.0157-0.88147 0.008-6.7599-1.76-13.063-3.93-12.474-4.2947-13.865-4.196-10.98 0.77934 4.7054 8.1134 29.336 16.405 30.2 10.166zm324.01-2.7986c19.142-9.4184 20.317-10.647 23.578-24.648 2.4881-10.684 7.7345-12.186 6.66-1.906-0.66382 6.3511 0.008 6.3708 3.6774 0.10843 2.3502-4.0103 2.4853-4.7352 1.5285-8.2027-1.1468-4.1566 0.74132-7.0849 4.5684-7.0849 0.94986 0 2.6961-0.37436 3.8805-0.83193 1.1844-0.45755 4.4738-1.3355 7.3097-1.9511 15.374-3.3369 24.891-8.8616 18.668-10.837-2.9691-0.94236-7.6846 0.24616-15.661 3.9474-16.071 7.4573-28.965 10.524-29.86 7.102-0.27165-1.0388-1.5213-2.3568-2.777-2.929-3.9514-1.8004-5.4413-10.438-1.8004-10.438 1.6322 0 23.387-11.114 28.331-14.474 6.1711-4.1934-5.407-1.2083-17.526 4.5186-2.8359 1.3401-5.924 2.4407-6.8623 2.4458-2.0783 0.0112-9.8394 5.2138-12.19 8.1717-3.5361 4.4494-7.34 1.9092-5.4142-3.6153 1.3299-3.815 1.2613-3.8375-3.1386-1.0263l-3.6989 2.3633 2.4678 1.9797c7.3764 5.9176 6.1179 25.132-2.5245 38.542-2.3261 3.6094-4.9183 8.0391-5.7603 9.8438-0.84203 1.8047-2.3264 4.4011-3.2987 5.7697-2.6394 3.7154-2.2654 6.6235 0.93627 7.2813 0.19815 0.0407 4.206-1.8181 8.9062-4.1308zm-423.27-1.6c4.8342-2.3524 9.1674-3.8469 10.797-3.7241 2.519 0.18979 7.8914-4.2602 8.0206-6.6436 0.0708-1.3071-3.5071-0.71417-4.0379 0.66916-0.42345 1.1035-1.0851 1.1776-3.3778 0.37834-2.6206-0.91354-3.2234-0.68231-7.4521 2.8581-2.5304 2.1186-6.9839 4.906-9.8967 6.1941-2.9127 1.2881-5.0379 2.7595-4.7226 3.2696 0.92125 1.4906 2.1443 1.1465 10.669-3.0016zm146.12-0.91998c1.6758-2.0851 3.0469-4.1982 3.0469-4.6959 0-2.0514-3.3707-0.038-5.7862 3.4561-4.7778 6.9116-2.6083 7.8935 2.7393 1.2398zm41.45 1.609c1.408-1.6965 0.50165-3.3223-1.8521-3.3223-2.698 0-6.5513 2.0184-6.5513 3.4317 0 1.7477 6.9371 1.6573 8.4034-0.10943zm-14.203-8.0063c6.9375-1.7936 12.386-9.3785 6.737-9.3785-5.2529 0-3.7199-3.4493 1.875-4.2188 5.9982-0.82497 5.986-1.9288-0.0293-2.6412-5.896-0.6983-7.1688-0.21046-9.0212 3.458-0.81468 1.6133-2.2878 3.8172-3.2736 4.8975-2.8847 3.1613-5.4096 8.6758-4.196 9.1644 1.1054 0.44508 1.4403 0.39082 7.9082-1.2813zm32.987-3.8683c0-0.96812-0.61797-1.7602-1.3733-1.7602-0.7553 0-1.8248-0.84375-2.3767-1.875-1.8816-3.5158-12.264-1.3785-13.589 2.7976-1.0747 3.3861 0.39506 3.627 4.4484 0.72882 1.3146-0.93995 1.9666-0.93762 3.2812 0.0117 5.6586 4.0862 9.6094 4.1262 9.6094 0.0971zm-168.34-0.27774c8.4015-0.29552 9.0574-1.1259 8.418-10.658-1.1883-17.714-4.6865-18.111-15.668-1.777-3.7231 5.5378-5.3522 8.8694-5.3522 10.945v2.9842l3.9303-0.66403c2.1617-0.36521 6.064-0.73908 8.6719-0.83081zm19.273-10.386c0-3.346-1.1027-7.9712-1.9005-7.9712-2.11 0-3.515 9.2095-1.6843 11.04 1.5024 1.5024 3.5848-0.28033 3.5848-3.069zm-40.149 2.7975c0.87106-0.33426 1.1491-1.8044 0.90993-4.8114l-0.34439-4.3301 3.1511 0.57492c2.7871 0.50849 3.397 0.22496 5.2798-2.4542 2.1006-2.9892 2.1036-3.0331 0.22403-3.3301-1.0476-0.16551-2.5437-1.5366-3.3247-3.0469-3.4005-6.5758-10.725 2.4724-10.742 13.27-0.007 4.4414 1.2465 5.5092 4.8457 4.1281zm111.4-3.4842c4.3647-1.8583 8.4375-6.0884 8.4375-8.7633 0-3.4427-1.615-3.5577-6.308-0.44916-2.4098 1.5962-6.8278 3.7941-9.818 4.8844-5.9619 2.1738-6.7712 3.7844-2.9168 5.8039 2.6226 1.3742 4.5372 1.1077 10.605-1.4758zm292.85-4.7462c3.6328-8.1636 3.8401-13.257 0.91444-22.46-1.7989-5.6591-3.2107-5.6193-5.9209 0.16706-2.0677 4.4146-2.0978 4.7855-0.67733 8.3357 0.81767 2.0435 1.7766 6.9149 2.1309 10.825 0.67734 7.4746 1.3547 8.0718 3.5528 3.1321zm-413.29-11.243 4.2334-8.5833-3.3844 3.2532c-4.0195 3.8638-5.6374 6.7328-6.5551 11.624-1.0531 5.6136 0.89014 3.47 5.7061-6.2942zm72.25 8.5526c0.91223-1.476-3.2141-4.6955-5.5697-4.3457-2.9022 0.43099-2.8889 2.3501 0.0273 3.9309 3.2089 1.7396 4.6568 1.8479 5.5425 0.41479zm397.23-3.3458c4.2689-2.6594 4.0907-4.5827-0.3886-4.1956-5.3648 0.46361-8.3446 2.0518-8.3446 4.4476 0 3.7371 2.443 3.6667 8.7332-0.25197zm-358.26-1.34c4.6726-1.3999 8.2838-4.7359 8.2838-7.6524 0-2.8077-2.477-5.1048-4.1571-3.8552-5.5982 4.1636-10.357 6.7567-15.53 8.4634-13.044 4.3027-2.3367 7.1609 11.404 3.0441zm-15.232-7.2362c6.6035-2.4145 6.0096-3.857-1.588-3.857-14.024 0-18.458 1.795-12.162 4.9243 3.366 1.673 7.0342 1.3883 13.75-1.0673zm7.9701-9.1135c4.3915-1.6852 1.5996-5.317-3.439-4.4736-2.707 0.45315-8.5078 0.8239-12.891 0.8239-7.9245 0-8.1202 0.084-7.6406 3.2812 0.15249 1.0166 21.429 1.3436 23.97 0.36845zm403.39-3.6497c0.8606-1.8047 1.913-3.2812 2.3388-3.2812 0.42573 0 1.8832-2.4258 3.2387-5.3906 1.3556-2.9648 3.1197-6.6479 3.9203-8.1846 4.4981-8.6337-0.73965-23.925-8.1951-23.925-5.5988 0-10.515 11.228-6.2704 14.32 2.78 2.0251 3.0148 3.7652 1.0231 7.584-1.6645 3.1914-1.7761 8.1292-0.36675 16.222 1.1775 6.7616 2.0862 7.3211 4.3113 2.6549zm-31.317-6.0515c9.2924-5.1022 10.734-6.2437 9.4857-7.5118-0.73808-0.74987-2.2809-0.13017-5.625 2.2594-2.5344 1.811-6.3835 4.158-8.5535 5.2156s-4.1989 2.3328-4.5085 2.8338c-1.204 1.948 2.7465 0.74721 9.2013-2.7969zm-378.86-8.6672c5.4164-3.0397 8.3457-7.3126 5.0132-7.3126-2.3132 0-8.8471 3.8111-10.808 6.3043-3.2498 4.1314-0.5936 4.5936 5.795 1.0083zm53.031-6.966c3.4722-0.9305 2.3989-2.7673-2.3438-4.011-8.0969-2.1233-10.096-2.2274-11.45-0.59592-2.237 2.6954 0.0624 3.7781 10.747 5.0597 0.51562 0.0619 1.8867-0.14191 3.0469-0.45283zm252.39-7.1435-0.0318-6.7969-1.8114 3.75c-2.2406 4.6387-2.293 5.953-0.32345 8.1293 2.2008 2.4319 2.2018 2.4296 2.1666-5.0824zm24.009 3.6049c3.5704-1.24 10.71-3.1581 15.867-4.2624 5.1562-1.1044 10.852-2.4051 12.656-2.8905 1.8047-0.48542 5.0742-1.3258 7.2656-1.8675 4.1608-1.0285 5.0192-2.6367 2.516-4.7141-4.5761-3.7978-53.169 6.6852-55.171 11.902-1.7888 4.6614 6.2168 5.5312 16.867 1.8324zm-320.77-4.7949c5.8342-1.696 12.308-7.4527 9.5651-8.5053-3.5992-1.3811-8.4823 0.39234-12.067 4.3826-5.2716 5.8679-5.0061 6.3054 2.5019 4.1227zm82.45-1.9927c8.1998-2.6271 9.167-3.1062 8.4879-4.2049-0.42459-0.687-2.7478-0.88318-6.7011-0.56584-4.5482 0.36508-7.331 0.0359-11.204-1.3253-10.848-3.8127-31.995-2.7559-28.525 1.4255 3.6542 4.4031 29.028 7.5265 37.942 4.6706zm193.15-8.3783c0.89412-2.33 0.66513-6.9546-0.34438-6.9546-1.3341 0-3.9966 5.568-3.4026 7.1159 0.683 1.7799 3.041 1.6784 3.747-0.1613zm40.882-1.6715c5.6397-1.6277 20.146-5.1914 30.469-7.4853 3.6094-0.80203 11.52-1.9665 17.578-2.5876 13.554-1.3896 14.265-2.7102 1.4602-2.7102-19.63 0-59.82 8.9906-59.82 13.382 0 2.0696 1.3354 1.9921 10.312-0.59884zm-219.33-1.591c-4.8502-2.2003-22.863-3.8342-21.07-1.9112 1.4903 1.5982 12.158 3.6872 19.146 3.749l6.0938 0.0539-4.1701-1.8917zm72.558-6.4245c0.89-1.43-5.56-4.77-9.19-4.77-5.9128 0-4.321 2.2326 3.0384 4.2614 5.5308 1.5248 5.5337 1.525 6.1634 0.50613zm-50.283-4.7894c4.297-2.0761 5.1245-3.7537 1.8167-3.6831-2.7057 0.0577-8.4211 2.8834-8.9163 4.4081-0.56891 1.7517 2.6548 1.4224 7.0996-0.725zm84.873 1.1938c0.23804-0.38671 0.73954-2.7526 1.1145-5.2574l0.68165-4.5543-2.6997 0.51848c-1.4849 0.28516-4.0708 0.7861-5.7466 1.1132-4.9684 0.96976-3.4985 5.4048 2.5974 7.8369 2.9258 1.1674 3.5148 1.2172 4.0529 0.34316zm119.21-1.1745c2.5781-0.45879 9.5391-1.6978 15.469-2.7533 5.9297-1.0555 12.047-1.9284 13.594-1.9397 1.5469-0.0113 3.4453-0.47015 4.2188-1.0196 1.0151-0.72116-1.2708-0.85822-8.2181-0.4927-9.6399 0.50718-32.49 5.3965-34.438 7.3689-0.63153 0.6393-0.0196 0.74042 1.875 0.30983 1.5469-0.35157 4.9219-1.0146 7.5-1.4734zm-145.77-3.09c0-2.8646-4.0784-4.3631-7.8921-2.8997-2.19 0.84038-1.8005 2.9894 0.62644 3.4568 4.461 0.85923 7.2656 0.64417 7.2656-0.55713zm-20.783-1.5973c2.0021-0.005 8.0525-3.6642 7.3007-4.416-1.0522-1.0522-11.83 2.7738-11.83 4.1995 0 0.85325 0.55125 1.1466 1.4829 0.78906 0.8156-0.31298 2.1867-0.57063 3.0469-0.57256zm-45.475-1.8928c6.5351-3.0719 12.353-9.563 10.801-12.05-2.3149-3.7067-3.8727-2.9869-11.396 5.2659-7.44 8.1612-7.2376 10.466 0.59557 6.7837zm148.04-3.4605c2.9752-1.7438 5.4124-3.4666 5.416-3.8287 0.004-0.36203 1.5856-1.7067 3.5156-2.9882 5.7612-3.8252 13.316-10.565 12.793-11.412-1.3183-2.133-5.1366-0.59233-8.4981 3.429-4.9856 5.9643-9.36 4.5961-7.5413-2.3588 1.6019-6.1259-7.8768 3.1545-10.069 9.8588-0.84321 2.5781-2.2811 5.7422-3.1954 7.0312-3.2788 4.623-3.3003 4.8116-0.4676 4.1006 1.4508-0.36412 5.072-2.0887 8.0473-3.8325zm-163.27 1.0743c3.1348-1.5841 4.9444-3.8078 4.1477-5.0969-0.44469-0.71954-1.0652-0.66206-2.0865 0.1933-0.79947 0.66957-4.2424 2.5302-7.6509 4.1348l-6.1973 2.9174 4.6875-0.46487c2.5781-0.25567 5.7729-1.0133 7.0995-1.6837zm123.15-2.0675c4.6363-2.5632 6.5551-4.9 4.0236-4.9-1.8546 0-12.866 5.7504-12.866 6.719 0 1.5662 4.3307 0.67537 8.8424-1.819zm-83.934-9.7274c1.9553-5.6091 1.3973-8.2976-1.7222-8.2976-7.5002 0-9.7391 3.2093-5.5597 7.9694 3.6183 4.121 5.9236 4.2249 7.282 0.32824zm106.62-7.8816c12.915-12.873 7.1033-11.883-6.4041 1.0915-5.4297 5.2154-5.9936 6.0637-4.8148 7.2425 1.2796 1.2797 2.435 0.42141 11.219-8.334zm-61.54 4.9c9.3986-2.0521 9.9395-3.4018 1.2041-3.0046-8.2598 0.37559-9.6416 0.79121-9.6416 2.8998 0 1.5972 1.5157 1.616 8.4375 0.10471zm184.32-3.9867c-0.31298-0.8156-0.56905-1.6594-0.56905-1.875 0-0.21563-2.5691-0.39207-5.7091-0.39207-4.6167 0-6.0069-0.36655-7.2656-1.9157-1.8307-2.2532-9.8483-3.6615-21.01-3.6904-10.596-0.0275-9.5538 2.2438 2.1094 4.596 2.8359 0.57195 6.4219 1.8742 7.9688 2.8938 3.834 2.5273 25.428 2.8655 24.475 0.38337zm-64.976-3.9077 3.0003-1.6406-3.6142-0.29684c-4.4248-0.36342-6.2295 0.25725-6.2295 2.1424 0 1.9217 3.1254 1.8281 6.8434-0.20495zm-169.5-4.1557c1.8468-0.84145 2.366-1.6892 2.1535-3.5156-0.42152-3.6218-3.631-3.6266-5.6707-0.008-2.7024 4.7932-1.6288 5.8689 3.5172 3.5242zm31.365-1.1929c1.1893-1.266 7.1536-4.7464 13.254-7.7344 11.015-5.3953 13.623-7.7764 8.5149-7.7764-6.8445 0-17.323 5.5313-22.595 11.928-4.3355 5.2597-3.6287 8.3248 0.82612 3.5828zm204.89-4.8067c-1.2864-2.5356-2.3407-5.3405-2.3429-6.233-0.007-2.9621-17.383-3.899-35.992-1.9406-17.925 1.8866-15.644 3.5633 4.8484 3.5633 21.465 0 28.74 1.4905 32.716 6.7029 3.2924 4.3165 3.5988 3.4835 0.76987-2.0927zm-182.58 1.8933c3.1967-1.3131 3.9459-2.9361 1.7452-3.7806-1.4556-0.55854-10.886 4.21-10.886 5.5045 0 0.96846 4.7818 0.0667 9.1406-1.7239zm80.606-0.83333c16.18-6.22 50.04-13.618 68.92-15.047 6.14-0.465 8.2-0.954 8.2-1.943 0-2.4734-25.818-1.8105-36.094 0.92677-4.6406 1.2361-9.0703 2.2238-9.8438 2.1948-2.4198-0.09075-21.781 6.0992-28.594 9.142-1.5469 0.69083-4.7678 1.5212-7.1576 1.8452-2.5194 0.34161-5.0425 1.3597-6.0047 2.4229-2.1393 2.3639 4.8426 2.6763 10.565 0.47269zm-97.62-24.427c6.0521-1.935 16.584-4.0926 20.401-4.1792 0.44986-0.01021 0.29274-0.65138-0.34916-1.4248-2.4548-2.9579-15.337-0.27854-26.719 5.5575-6.1306 3.1433-3.0857 3.1646 6.6665 0.04659zm120.39-1.2016c2.8503-1.0608 9.1581-2.6186 14.017-3.4617 16.837-2.9213 13.712-4.1488-10.647-4.1814-22.612-0.03029-22.332-0.10508-17.91 4.789 1.7954 1.9873 3.2644 4.0801 3.2644 4.6507 0 1.3866 4.7619 0.62795 11.276-1.7965zm-126.81-11.558c4.7951-1.2566 8.5231-1.6988 11.002-1.3053 10.058 1.5966 11.979 1.2514 12.909-2.3198 0.46971-1.8047 1.1724-3.7031 1.5615-4.2188 7.0089-9.288-25.832-1.9743-38.32 8.534-4.4737 3.7643-3.7709 5.3534 1.3631 3.0823 2.3276-1.0296 7.4955-2.7272 11.484-3.7725zm39.308 1.7656c4.5357-2.6806 11.955-5.7764 20.913-8.7263 6.6973-2.2055 12.126-5.4759 10.984-6.6175-0.29226-0.29225-1.9341-0.08501-3.6484 0.46054-1.7144 0.54555-6.2811 1.705-10.148 2.5766-12.045 2.7147-18.788 6.2681-21.85 11.514-2.0117 3.447-1.0765 3.6447 3.7494 0.79258zm123.87-7.9749c0.3351-2.36-4.798-8.246-6.353-7.2849-0.98206 0.60695-0.3384 5.4911 1.0919 8.2854 1.2267 2.3966 4.8774 1.7023 5.2612-1.0005zm-12.02-1.193c0-1.0005-1.2335-3.1969-2.7411-4.8808l-2.7411-3.0617-11.087 0.01678c-9.6277 0.01457-11.615 0.29221-15.1 2.1094-2.5625 1.3361-5.6773 2.0926-8.6166 2.0926-6.3074 0-6.6783 1.4478-0.72744 2.8402 2.7058 0.63314 5.5425 1.4834 6.3036 1.8896 3.43 1.832 34.71 0.926 34.71-1.006zm-47.81-8.246c3.8672-0.49667 9.4099-1.5454 12.317-2.3304 2.9073-0.78505 9.1216-1.7274 13.81-2.0942 9.3037-0.72782 10.131-1.6095 2.9556-3.1485-5.9482-1.2757-19.998 1.1216-32.364 5.522-2.5781 0.91744-6.1641 2.1239-7.9688 2.681l-3.2812 1.0129 3.75-0.36989c2.0625-0.20344 6.9141-0.77626 10.781-1.2729zm-61.226-5.1098c2.0182-1.1475 5.0679-2.998 6.7771-4.1122s4.64-2.278 6.5127-2.5862c4.0884-0.67291 18.846-8.1034 18.862-9.4974 0.0377-3.1923-7.3779-4.4651-10.825-1.8579-1.0009 0.75704-3.1394 1.3899-4.7522 1.4062-4.5717 0.04648-10.525 2.7883-8.5064 3.9179 4.4872 2.5111 1.0001 5.4721-11.351 9.6384-5.0073 1.6891-6.1552 2.4546-6.283 4.1898-0.19506 2.6476 3.7796 2.191 9.5653-1.0987zm83.483-24.794c1.2131-3.6435-3.9998-5.8249-12.565-5.2581-12.762 0.8445-12.525 2.729 0.62069 4.9487 3.8672 0.653 7.4531 1.3244 7.9688 1.4921 1.6893 0.54923 3.5873-0.01537 3.9759-1.1827zm-12.88-10.569c13.631-2.641 13.125-2.4753 13.125-4.2959 0-3.0252-23.748 0.03166-26.483 3.4089-2.2327 2.7572-2.0631 4.0076 0.46708 3.4449 1.1602-0.258 6.9609-1.4091 12.891-2.5579zm-85.97 558.03c-4.3619-0.71181-3.3644-6.7807 1.1145-6.7807 6.1107 0 11.71-10.994 11.723-23.018 0.009-8.3026-4.5751-32.487-6.5411-34.509-2.493-2.5644-5.2122 6.3906-4.2974 14.152 1.2703 10.778 1.2407 11.031-1.2874 11.031-5.8757 0-7.4729-9.8989-3.9964-24.768 3.4378-14.703 10.081-16.623 16.177-4.6751 2.3268 4.5609 3.6343 4.5862 7.5416 0.14576 2.9779-3.3842 3.0165-3.5268 1.0326-3.8155-3.8518-0.56039-4.2882-10.429-0.46409-10.494 0.41304-0.008 3.4932-2.5744 6.8447-5.7052 6.2858-5.8718 16.702-13.237 21.067-14.897 1.3659-0.51932 2.2222-1.3669 1.903-1.8835-1.0168-1.6452-4.9245-1.0125-7.6635 1.241-1.4575 1.1991-4.7594 3.5904-7.3376 5.3139-5.0625 3.3844-10.279 7.727-18.074 15.046-6.5995 6.197-12.395 6.4416-12.395 0.52301 0-4.551 10.998-14.183 24.178-21.174 7.0945-3.7633 6.6785-4.4164-3.084-4.843l-7.5-0.32772-0.30408 2.6552c-0.23045 2.0122-1.1385 3.0372-3.75 4.2328-1.8953 0.8677-4.8117 2.9695-6.481 4.6707-4.4121 4.4965-9.0234 4.0509-9.4375-0.91194-0.32226-3.8621 1.7918-5.9205 9.0722-8.8335 5.3414-2.1372 4.0094-2.9757-5.3634-3.3762-8.9282-0.38145-11.393-2.0866-11.393-7.883 0-5.4965 5.47-6.7471 11.434-2.6142 3.6967 2.5618 15.178 4.9252 24.269 4.9956 2.3632 0.0183 6.582 0.43717 9.375 0.93086s9.0253 1.6094 13.849 2.4794c9.5232 1.7173 10.153 1.6735 37.166-2.5889 15.207-2.3996 19.344-2.9555 40.312-5.4188 16.413-1.9281 43.024-5.759 52.5-7.5578 22.374-4.2473 35.398-3.19 31.772 2.5792-0.86497 1.3762-3.1304 1.7481-14.058 2.3073-13.699 0.70108-16.385 1.0244-37.241 4.4831-12.075 2.0024-13.026 2.3113-13.858 4.4997-1.5035 3.9546-8.0907 11.095-13.267 14.381-14.187 9.0068-41.857 31.798-49.832 41.046-1.0741 1.2455-3.176 3.6932-4.6709 5.4394-3.5207 4.1124-7.4279 4.0665-7.903-0.0929-0.24015-2.1027 0.51482-3.5572 3.4061-6.5625 3.868-4.0204 6.3047-7.8962 5.4818-8.7192-0.96026-0.96025-8.8186 5.4186-18.892 15.335-9.5074 9.3596-13.299 14.069-17.544 21.79-2.0545 3.737-3.9148 4.4177-6.8384 2.5021-3.8078-2.495-2.485-9.1654 3.1313-15.79 0.76763-0.9055 1.0826-1.9595 0.6998-2.3423-0.38275-0.38274-1.2792 0.10187-1.9922 1.0769-2.8778 3.9356-11.862 12.688-13.585 13.235-1.6025 0.50861-1.8406 1.4527-1.8451 7.3177-0.012 15.414-11.248 28.114-23.154 26.171zm73.784-76.084c1.8047-1.3227 3.4922-2.6182 3.75-2.8789 0.94735-0.95813 8.9769-7.1518 11.25-8.6777 1.2891-0.86538 5.2969-3.9183 8.9062-6.7842 3.6094-2.8659 8.25-6.3251 10.312-7.687 2.0625-1.3619 4.1719-2.9585 4.6875-3.5479 1.3996-1.6 7.2655-5.7038 9.1406-6.3949 1.6948-0.62463 2.1744-2.098 0.9328-2.8653-3.9201-2.4228-18.451 7.916-38.045 27.069-3.178 3.1065-7.0438 6.4306-8.5907 7.387-3.5383 2.1876-7.9688 6.2751-7.9688 7.3519 0 0.93871 1.038 0.39039 5.625-2.9715zm-20.529-7.5718c3.2389-2.8359 8.988-7.9955 12.776-11.466 3.7878-3.4702 8.7694-7.4126 11.07-8.761 4.6486-2.7242 5.3194-4.1484 1.954-4.1484-1.5232 0-4.8518 2.5241-10.509 7.9688-4.5538 4.3828-8.6131 7.9688-9.0207 7.9688-0.40761 0-0.74112 0.59841-0.74112 1.3298 0 0.73138-1.377 2.1808-3.0599 3.2209-3.5085 2.1684-11.003 8.9-11.003 9.8831 0 1.0779 2.2991-0.53774 8.5333-5.9963zm33.065-16.05c0.76582-1.0934 2.4205-2.6754 3.6771-3.5156 1.2566-0.84025 4.0445-2.703 6.1954-4.1394s3.6706-3 3.3773-3.4747c-0.77672-1.2568-2.4999-0.36321-7.1358 3.7003l-7.4 6.4863c-2.35 2.0598-2.8307 2.8839-1.6938 2.9036 0.8731 0.0151 2.214-0.86707 2.9798-1.9604zm22.183 33.433c-5.806-6.9958 44.113-46.445 58.772-46.445 3.3382 0 2.7507 3.3862-0.91283 5.2614-4.409 2.2568-19.922 13.283-27.808 19.765-1.7595 1.4462-4.5519 3.4733-6.2055 4.5045-4.8907 3.0502-14.123 11.95-15.804 15.234-1.7256 3.3727-5.9105 4.2465-8.0414 1.679zm-135.58-23.73c-3.3765-2.2546-4.1149-8.4649-1.3084-11.005 4.0334-3.6501 7.4962 1.1757 7.4962 10.447 0 1.3636-4.3885 1.7593-6.1878 0.55792zm220.06-0.47599c-1.9404-1.9404-1.0998-3.2478 5.5343-8.608 7.0546-5.6998 9.6355-6.2654 10.105-2.2142 0.46599 4.0188-13.074 13.388-15.64 10.822zm-207.54-43.88c-4.5708-2.6622-0.27775-5.4559 8.3708-5.4473 10.609 0.0106 37.625-7.137 52.801-13.969 27.692-12.467 74.367-12.796 72.961-0.51322-0.44788 3.9121-5.2039 4.1926-10.471 0.61766-7.9292-5.3816-37.347-3.2223-53.515 3.928-27.085 11.978-62.615 19.77-70.146 15.384zm8.3918-8.0175c-8.0785-8.0785 10.667-29.622 41.999-48.269 6.7031-3.9892 14.508-8.6963 17.344-10.46 11.141-6.9292 24.286-13.006 50.156-23.185 1.0312-0.40577 3.9844-1.5792 6.5625-2.6076s6.1641-2.1561 7.9688-2.5061c4.2584-0.82573 15.198-4.3007 16.406-5.2114 0.51562-0.38869 2.625-0.98761 4.6875-1.3309 10.029-1.6694 19.17-5.5652 20.864-8.8926 4.0501-7.9514 8.088-5.7215 7.8344 4.3265-0.20262 8.0291 1.3091 19.284 3.2501 24.197 2.9754 7.5312 7.4832 15.679 9.7698 17.658 10.231 8.8576 17.493 26.873 10.832 26.873-1.7877 0-2.532-0.97799-4.2591-5.5961-1.151-3.0779-2.679-6.0826-3.3956-6.6773-0.71651-0.59466-1.3028-1.6665-1.3028-2.3819s-2.8477-4.3723-6.3281-8.1264c-9.3007-10.032-13.117-17.865-16.193-33.234-1.4381-7.1859-2.2253-7.3246-16.948-2.9872-36.089 10.632-62.98 21.578-83.649 34.048-3.5196 2.1236-8.2614 4.9157-10.537 6.2047-8.3633 4.7367-21.941 13.258-22.458 14.094-0.29261 0.47345-2.8343 2.389-5.6482 4.2568-7.5835 5.0336-16.062 14.74-20.001 22.899-3.1195 6.4613-5.2683 8.5954-6.9558 6.908zm-22.923-52.528c-2.298-0.92725-1.3412-4.9901 1.4062-5.9712 3.6944-1.3194 7.6792-3.6186 11.704-6.7531 4.5802-3.5671 7.6398-3.249 8.0363 0.83535 0.51622 5.3182-15.339 14.232-21.147 11.889zm160.45-42.26c-4.7766-3.3016-8.5003-32.494-4.6825-36.71 4.0388-4.4597 8.0439-1.6323 8.075 5.7007 0.009 2.2253 0.70676 8.4757 1.5496 13.89 2.5986 16.693 1.2416 21.393-4.942 17.119z"/>
</svg>
