<?xml version="1.0" encoding="UTF-8" standalone="no"?>
<svg xmlns:rdf="http://www.w3.org/1999/02/22-rdf-syntax-ns#" xmlns="http://www.w3.org/2000/svg" height="512.81" viewBox="0 0 406.875 512.8125" width="406.88" version="1.1" xmlns:cc="http://creativecommons.org/ns#" xmlns:dc="http://purl.org/dc/elements/1.1/">
<path d="m88.595 506.02c0.17607-4.9046 1.077-9.0154 3.236-14.766 3.1052-8.2702 3.6144-9.9938 8.4084-28.461 4.7528-18.308 4.296-19.785-6.4452-20.841-8.0782-0.79421-11.453-1.8085-8.9501-2.6902 7.0809-2.4946 7.6451-3.3879 3.2812-5.1955-3.4808-1.4418-3.6654-4.0855-0.43312-6.2033 5.0475-3.3072 38.559-1.5748 65.589 3.3908 5.6719 1.0419 16.313 2.9128 23.647 4.1575 7.3342 1.2447 14.084 2.4966 15 2.7819 0.91583 0.28535 4.6183 0.94436 8.2276 1.4645 33.986 4.8973 39.883 6.9199 53.258 18.267 3.4226 2.9036 7.7823 5.9308 9.6883 6.7272 7.8443 3.2775 33.274 8.7899 40.549 8.7899 2.4484 0 6.4658 0.68631 8.9276 1.5251 3.4546 1.1771 6.7551 1.4205 14.464 1.0664 10.922-0.50164 14.207 0.16777 14.207 2.8955 0 4.26-11.533 6.5572-23.438 4.6684-11.36-1.8025-20.994-1.5895-23.317 0.51542-1.7379 1.5742-2.9869 1.7034-11.581 1.1976-14.874-0.87554-31.555-2.201-42.172-3.351-13.136-1.4229-42.823-3.9583-56.523-4.8274-6.1875-0.3925-16.431-1.163-22.764-1.7122-6.3328-0.54923-16.88-1.0687-23.438-1.1543-6.7989-0.0888-13.736-0.69775-16.142-1.4169-14.826-4.4322-19.02 0.39194-25.337 29.139-2.7236 12.396-8.3465 15.25-7.9438 4.0326zm173.62-31.99c-0.31987-0.83359-2.3693-1.6606-5.0464-2.0363-3.7376-0.52461-29.153-5.3426-41.539-7.8745-1.8047-0.36892-4.125-1.0969-5.1562-1.6176-1.0312-0.5208-4.4062-1.4584-7.5-2.0836s-9.4219-1.9534-14.062-2.9515c-11.192-2.4072-14.859-2.6954-41.037-3.226-14.581-0.29552-23.006-0.83653-24.366-1.5647-2.2561-1.2074-13.238-1.6844-14.308-0.62144-0.70862 0.70372-4.1231 12.649-4.1681 14.582-0.0358 1.5374 5.8627 1.4774 14.998-0.15268 6.8796-1.2275 50.836-1.2973 55.943-0.0889 1.1343 0.2684 6.8296 0.90185 12.656 1.4077 5.8267 0.50581 16.289 1.5661 23.25 2.3561 6.9609 0.79003 16.453 1.8387 21.094 2.3304 4.6406 0.49165 11.391 1.523 15 2.2919 11.77 2.5074 15.418 2.3152 14.242-0.75017zm-22.21-17.1c0-0.71827-0.13199-1.306-0.29332-1.306-0.16131 0-9.7324-1.8984-21.269-4.2188-23.113-4.6487-25.312-4.893-25.312-2.8125 0 0.77344 0.10547 1.4266 0.23437 1.4514 0.12891 0.0249 10.148 2.0636 22.266 4.5307 22.214 4.5228 24.375 4.7316 24.375 2.3551zm-37.031 41.285c-12.771-2.1455-31.112-4.7366-49.219-6.9532-11.151-1.3651-15.743-2.5365-18.527-4.7262-1.2025-0.9459-3.4739-2.0026-5.0475-2.3482-13.094-2.8758 25.633-1.6863 47.48 1.4585 7.2188 1.0391 16.289 2.3324 20.156 2.874 3.8672 0.54163 11.039 1.7696 15.938 2.7289 4.8984 0.95927 11.766 2.0349 15.261 2.3904 4.9481 0.50316 6.5735 1.0543 7.3416 2.4894 1.3662 2.5527 0.4863 3.0494-2.2388 1.2638-2.614-1.7127-6.5734-0.79337-7.5506 1.7532-0.7893 2.0569-7.3539 1.798-23.595-0.93053zm112.03-35.71c-33.167-11.977-33.464-12.06-37.09-10.331-5.1334 2.448-6.7928 2.0541-8.4137-1.997-1.7882-4.4691-4.5739-6.0851-14.028-8.1372-9.3928-2.0389-12.571-4.2418-7.8872-5.4667 9.0109-2.3564-1.4004-5.5416-28.207-8.6294-10.449-1.2036-20.868-3.2847-37.72-7.5344-2.9571-0.74567-6.5719-1.3558-8.033-1.3558s-4.737-0.61497-7.2798-1.3666c-15.914-4.7041-57.122-7.5452-63.233-4.3597-6.5243 3.4007-8.3211 1.8759-8.5148-7.2254-0.14338-6.7389-1.0547-8.942-4.2942-10.381-5.8275-2.5895-5.7207-8.105 0.16893-8.7179l2.8125-0.29271v-17.344c0-18.302 0.63796-21.562 4.2188-21.562 1.9917 0 3.75 2.5827 3.75 5.508 0 3.0249 1.9232 3.3633 4.0882 0.71929 1.835-2.241 2.76-2.4935 10.88-2.9698 13.873-0.81392 14.369-4.0122 4.3305-27.965-2.9089-6.9411-4.5541-12.485-5.1751-17.438-1.681-13.406-3.08-14.471-9.9046-7.5424-7.6458 7.7625-12.116 5.0575-12.287-7.4353-0.1317-9.6012-2.7134-14.359-13.659-25.174-9.7449-9.6283-11.187-15.203-3.9329-15.203 3.5691 0 5.0357-2.4247 5.0357-8.3253 0-8.1306-1.5275-9.6493-6.4374-6.4001-9.1041 6.0248-17.98 2.4553-24.534-9.8668-8.664-16.26-16.374-26.07-28.104-35.74-8.726-7.2-13.38-13.66-12.825-17.8 0.80922-6.0332 4.3057-6.9602 9.3957-2.4912 8.5032 7.4659 9.4709 7.173 23.964-7.2547 12.016-11.961 16.939-16.291 25.229-22.19 9.6426-6.8604 36.635-29.568 48.455-40.762 3.6094-3.4184 7.6286-7.0547 8.9315-8.0807 2.6026-2.0493 7.0589-7.9592 6.0016-7.9592-0.91007 0-10.129 5.6903-10.732 6.624-0.26738 0.41429-2.9592 2.4317-5.9818 4.4832-3.0226 2.0514-8.2882 6.2175-11.701 9.2578-3.4132 3.0404-8.6056 7.2899-11.539 9.4435-2.9332 2.1536-6.399 5.2925-7.7019 6.9754s-4.7759 4.9583-7.7179 7.2786-7.7027 6.3798-10.579 9.021c-2.8767 2.6413-6.7069 5.553-8.5116 6.4706-1.8047 0.91758-6.0234 4.2497-9.375 7.4046-15.987 15.049-23.082 19.064-24.974 14.133-1.5699-4.0911 9.8227-18.376 21.8-27.334 1.4883-1.1132 2.4092-2.324 2.0465-2.6907-1.505-1.5216-5.4674 0.9201-14.094 8.6852-16.663 14.999-23.942 20.873-25.865 20.873-4.7077 0-7.4098-8.4773-4.1917-13.151 6.7398-9.78 29.676-33.52 44.355-45.91 5.806-4.9 12.292-10.403 14.414-12.232 2.122-1.8293 4.9128-4.0562 6.2019-4.9487 1.2891-0.89244 4.0312-2.8811 6.0938-4.4192 2.0625-1.5381 6.6696-4.7945 10.238-7.2365 3.5684-2.4419 7.5762-5.5198 8.9062-6.8397s4.9495-4.1749 8.0432-6.3445c5.8388-4.0946 8.5697-6.1835 20.44-15.635 3.8855-3.0938 8.6194-6.6797 10.52-7.9688 1.9004-1.2891 4.993-3.6591 6.8725-5.2667s5.1048-3.7776 7.1673-4.8221 4.5928-2.831 5.6228-3.9699 3.1394-2.7182 4.6875-3.5095 4.3625-2.6549 6.2542-4.1413 6.1105-4.1081 9.375-5.8261c3.2645-1.7179 9.0995-4.8266 12.967-6.9082 9.3617-5.0391 10.548-5.3314 13.136-3.2362 3.556 2.8795 1.9913 6.0963-4.4644 9.1782-7.9363 3.7887-11.628 7.8767-7.113 7.8767 0.85702 0 3.7932 0.70452 6.5249 1.5656l4.9666 1.5656 5.897-3.0188c3.2434-1.6603 7.5845-4.2512 9.647-5.7576 2.0625-1.5063 4.6765-3.4173 5.809-4.2466 3.0943-2.2661 6.2626 0.60302 11.192 10.134 2.3337 4.5129 27.007 31.848 31.87 35.308 4.151 2.9535 9.7235 12.066 9.7235 15.9 0 3.6425 1.2482 3.6654 6.0938 0.11177 2.0625-1.5126 5.9408-4.2202 8.6185-6.0168s6.4745-4.6814 8.4375-6.4107c1.963-1.7292 5.8893-4.7062 8.7253-6.6156 8.6509-5.8243 9.6353-6.5316 15.938-11.451 15.421-12.037 29.323-14.376 31.829-5.3545 3.3584 12.093-1.4366 19.644-18.235 28.716-2.5781 1.3924-6.375 4.3415-8.4375 6.5536-4.3648 4.6815-11.351 10.415-17.344 14.235-2.3203 1.4788-5.452 3.686-6.9593 4.9048s-4.6714 3.1797-7.0312 4.3575c-2.3599 1.1779-6.008 3.1162-8.1069 4.3075-7.3536 4.1736-9.469-0.31792-3.2151-6.8264 8.6729-9.0259 0.92268-6.9494-15.394 4.1244-21.283 14.445-23.522 15.896-30.339 19.669-5.0888 2.8164-10.411 6.2308-19.892 12.76-10.963 7.5509-16.53 17.056-13.462 22.988 0.92352 1.7859 1.6297 6.6397 1.9693 13.537 0.37694 7.6538 0.88658 10.889 1.7684 11.228 0.91755 0.3521 1.0981 1.8499 0.69599 5.7749-0.62544 6.1053 1.3301 15.283 4.5827 21.506 2.7002 5.1667 1.6324 6.0159-7.0403 5.5989-5.4419-0.26166-6.4051-0.0665-6.868 1.392-1.7809 5.611-9.7712 5.3092-9.7712-0.36908 0-1.6462-0.69104-3.7567-1.5356-4.69-1.1772-1.3008-1.2851-1.9987-0.4623-2.9902 2.0499-2.4699 3.0694-15.356 1.5103-19.088-1.4847-3.5534 1.4089-18.679 4.7069-24.603 9.207-16.54 7.998-20.021-3.4731-9.9976-2.4256 2.1194-5.906 5.0551-7.7344 6.5239-1.8283 1.4688-3.3243 3.2375-3.3243 3.9306 0 0.69309-1.4766 5.7677-3.2812 11.277-4.9577 15.135-4.0239 24.965 1.0256 10.797 2.7347-7.6734 6.3328-16.459 7.2321-17.659 2.761-3.6847 4.4824 0.82105 2.6329 6.8914-0.45547 1.4949-1.2896 4.4055-1.8536 6.468-0.56398 2.0625-2.0898 7.2522-3.3906 11.533-2.9276 9.6334-2.9397 11.192-0.11003 14.197 2.3022 2.445 6.1823 8.8729 6.1823 10.242 0 1.7264-5.7814 3.1896-15.82 4.004-12.803 1.0386-14.18 1.6225-14.18 6.0164 0 3.1835 0.0562 3.2331 2.127 1.8762 1.8554-1.2157 2.843-1.2265 7.7344-0.0844 3.3563 0.78369 7.8655 1.104 11.232 0.79784 13.596-1.2363 19.966 18.725 9.3603 29.331-5.5883 5.5883-11.798-4.0403-7.6217-11.819 6.7273-12.531 7.0568-11.666-4.3341-11.382-5.4314 0.13538-10.294-0.28393-13.058-1.1259-6.6473-2.0252-7.0815 3.0796-1.8554 21.811 1.1406 4.0882 19.551 11.264 39.782 15.506 1.422 0.29814 3.9532 1.7761 5.625 3.2843l3.0396 2.7422-2.5428 2.5721-2.5428 2.5721-9.6447-1.4594c-7.1386-1.0802-12.233-2.5705-19.607-5.7356-5.4795-2.3519-11.673-4.7367-13.763-5.2996-6.2956-1.6952-8.1492-5.7545-8.1492-17.847 0-8.6152-0.20264-9.8685-1.6406-10.147-0.90234-0.17469-1.6406 0.14564-1.6406 0.71184 0 0.56619-1.0156 1.4156-2.2569 1.8875-1.4348 0.54552-2.4858 1.9-2.8852 3.7184-0.72646 3.3075-6.119 8.1496-10.034 9.0094-5.3405 1.173-6.2666 10.684-1.6969 17.427 3.2084 4.7347 3.4531 6.52 1.1695 8.5344-2.9044 2.562-7.1539 2.9137-9.1085 0.7539-3.7257-4.1168-5.5236-1.1707-3.0004 4.9165 1.2321 2.9724 3.3653 11.911 5.3634 22.473 1.5686 8.2919 0.85603 8.1598 26.667 4.946 6.7031-0.83461 16.195-2.3719 21.094-3.4162 4.8984-1.0443 11.227-2.2801 14.062-2.7464 21.292-3.5004 33.355-4.932 45.938-5.4517 7.9922-0.33014 15.059-0.94157 15.703-1.3587 2.3076-1.4935 1.4003-6.2228-1.4062-7.3305-1.418-0.55965-3.2109-1.3302-3.9844-1.7124-0.77344-0.38219-2.1133-3.5715-2.9774-7.0873-1.2061-4.9072-2.2113-6.8934-4.3265-8.5488-2.7053-2.1172-4.1947-4.9063-5.2753-9.8784-0.39142-1.801-1.3062-2.6708-3.2602-3.1-3.0859-0.67777-5.171-2.6662-6.522-6.2195-0.62542-1.645-1.8594-2.6306-3.7727-3.0132-7.779-1.5558-7.46-24.646 0.52947-38.326 4.4557-7.6292 6.2805-0.77309 3.1638 11.887-2.0368 8.2738-2.583 18.306-0.99668 18.306 0.51562 0 0.9375-0.91927 0.9375-2.0428 0-1.1236 0.40703-3.3384 0.90452-4.9219 5.7435-18.282 9.807-27.404 10.917-24.511 0.94883 2.4726-0.52431 15.846-2.5106 22.792-1.9519 6.8255-2.3158 12.997-0.89851 15.238 1.4466 2.2882 2.4163 0.23815 5.2024-10.999 2.6535-10.702 5.3527-16.736 7.0242-15.703 1.5666 0.96823 0.9775 13.683-0.97401 21.021-2.2185 8.3424-2.4396 14.126-0.54019 14.126 0.81618 0 1.7371-1.8618 2.4345-4.9219 3.6961-16.217 7.1862-23.747 9.4508-20.391 1.0514 1.5583 0.37607 12.1-1.0931 17.063-1.4847 5.0156-2.8168 22.6-1.7898 23.627 1.5103 1.5102 2.0707-0.0103 2.0058-5.4421-0.034-2.8499 0.30603-5.409 0.7557-5.6869 0.44968-0.27792 1.3216-3.4933 1.9376-7.1454 4.0118-23.784 9.2307-23.886 7.0642-0.13725-1.3873 15.207-1.2962 18.971 0.45874 18.971 0.91751 0 1.0977-0.59412 3.7392-12.328 4.4237-19.651 11.187-21.446 8.3041-2.2029-0.54076 3.6094-1.09 8.0391-1.2205 9.8438-0.13052 1.8047-0.57333 5.7606-0.98402 8.791-0.61003 4.5011-0.5097 5.4315 0.54806 5.0826 0.81021-0.26726 1.5128-2.5046 1.8773-5.9785 1.4717-14.026 4.9258-26.796 8.5467-31.596 1.2522-1.66 4.4196-9.2587 7.0388-16.886 5.7534-16.755 5.8278-16.862 11.164-16.061 4.812 0.72161 4.9483 0.26607 1.7305-5.7857-1.75-3.27-2.36-5.86-2.36-9.91 0-5.8763-2.0037-7.7216-3.6656-3.376-0.44369 1.1602-1.7454 2.9531-2.8927 3.9844-2.3099 2.0762-7.5248 11.988-9.3719 17.812-1.7937 5.6562-4.6948 8.3735-4.6948 4.3972 0-3.1326 7.6132-24.987 9.86-28.303 3.3032-4.8764 4.0682-7.5857 3.5185-12.462-0.70176-6.226 4.7927-11.894 11.401-11.761 4.7456 0.0952 4.7817 1.8269 0.10189 4.8933-2.5195 1.6508-3.2713 5.2674-1.095 5.2674 0.70777 0 3.0368-1.8984 5.1756-4.2188 4.345-4.7137 6.045-5.3509 5.1902-1.9454-0.4933 1.9655-0.21001 2.3147 2.0915 2.5781 1.9303 0.22098 2.7444 0.8846 2.9617 2.4141 0.38975 2.7443 2.1715 2.67 5.6232-0.23438 5.4006-4.5443 14.233-1.9725 14.233 4.1442 0 1.1816 1.0547 2.978 2.3438 3.992 1.6855 1.3258 2.3438 2.746 2.3438 5.0568 0 2.1899 0.43526 3.2132 1.3668 3.2132 2.869 0 8.7035 6.9006 10.25 12.123 2.941 9.9307 2.0332 15.867-3.8091 24.908-3.5101 5.4319-4.1517 10.89-2.2866 19.453 1.3773 6.3234 1.5247 6.4169 3.3245 2.1094 4.3911-10.509 7.7849-1.4564 8.8629 23.641 1.0082 23.473 3.385 17.261 3.385-8.8472 0-23.939 0.65324-26.073 6.2637-20.462 8.6544 8.6543 4.8482 40.514-5.9079 49.452-2.0457 1.6999-5.4047 4.6728-7.4645 6.6064-2.9712 2.7892-4.4814 3.5156-7.309 3.5156-5.6536 0-13.139 4.6001-15.505 9.5283-2.1832 4.5473-6.4882 6.2555-7.4296 2.9481-2.3031-8.0912-2.7166-12.741-1.7105-19.231 0.58304-3.7614 1.5131-12.112 2.0669-18.558 0.97856-11.39 1.4335-15.016 3.7955-30.255 1.2442-8.0271 0.86759-9.3314-1.9565-6.7756-3.6023 3.2601-4.9317 7.3058-5.6985 17.343-0.41363 5.4141-1.2119 14.062-1.774 19.219-0.76763 7.0421-0.73828 11.759 0.1179 18.957 0.9527 8.0086 0.92508 9.9829-0.16818 12.026-2.5692 4.8006-7.6964 5.2446-9.3815 0.81238-0.79536-2.092-1.3522-2.2635-7.346-2.2635-7.2118 0-7.6235 0.35234-7.6235 6.5244 0 6.6285-10.956 6.7791-30.737 0.42258-16.964-5.4514-38.742-6.0122-67.599-1.7407-4.8423 0.71679-9.0807 1.1324-9.4185 0.9236-1.0162-0.62808-15.756 1.0364-27.246 3.0768-5.9297 1.053-13.734 2.2102-17.344 2.5717-13.919 1.3938-13.777 1.0375-9.2987 23.378 1.1487 5.7305 4.9428 6.3558 30.147 4.969 15.951-0.87775 22.942-0.84836 35.156 0.1478 8.3853 0.68388 16.933 1.373 18.996 1.5313 2.0625 0.15831 10.922 0.51081 19.688 0.78331 9.0309 0.28076 18.578 1.1082 22.031 1.9095 26.303 6.1034 30.804 4.6869 35.572-11.196 2.9864-9.9468 4.8492-12.942 6.8218-10.97 1.8165 1.8165 1.3607 7.6794-1.029 13.234-1.9184 4.4594-2.0532 5.5263-1.1 8.7076 1.1775 3.93 1.2161 3.953 12.235 7.2667 10.168 3.0579 11.003 3.35 18.75 6.5597 22.197 9.1969 38.184 18.973 35.775 21.876-1.9287 2.324-33.03 0.89265-49.048-2.2573-4.9794-0.97921-10.886-1.7877-13.125-1.7967-2.2393-0.009-6.9472-0.62561-10.462-1.3703-10.397-2.203-17.394 1.8713-9.3126 5.4225 1.418 0.62308 4.412 2.3734 6.6535 3.8895l4.0753 2.7566 1.6471-2.1836c1.9757-2.6192 10.353-2.2434 20.202 0.90631 3.0938 0.98936 9 2.4026 13.125 3.1404 15.824 2.8306 25.927 5.3108 38.056 9.3418 6.913 2.2976 15.311 4.7126 18.663 5.3667 6.2611 1.2218 11.25 3.9936 11.25 6.2504 0 0.70203 1.4766 2.7968 3.2812 4.655 4.2599 4.3863 4.139 5.5111-0.85355 7.9367-2.2741 1.1049-4.5854 2.9978-5.1362 4.2066-1.4775 3.2429-8.5744 2.924-24.067-1.0812-23.326-6.0306-29.747-5.5348-27.211 2.1009 0.99318 2.9902 1.3405 5.9768 0.96673 8.313l-0.58333 3.6462h18.598c19.376 0 30.423 2.1719 34.201 6.7241 3.6159 4.357-2.8196 5.0373-30.134 3.1856-26.376-1.788-31.898-1.0305-34.616 4.7483-2.1299 4.5288-5.5246 4.4019-19.759-0.73827zm16.045-6.7619c1.2297-0.96162 4.4705-2.8772 7.2017-4.2569 7.8404-3.9604 5.818-11.029-7.5352-26.338-1.799-2.0625-4.1851-5.8377-5.3024-8.3893-4.581-10.462-12.9-18.736-19.785-19.679-6.7782-0.92855-7.5717 0.42936-3.2192 5.5096 6.9452 8.1066 17.33 22.981 20.641 29.565 1.1739 2.3344 3.4296 5.4835 5.0127 6.9979 5.3416 5.11 3.3968 9.8918-4.3959 10.809-5.5509 0.65327-7.303 3.0917-4.1063 5.715 2.8508 2.3395 8.5406 2.3731 11.488 0.0679zm-42.29-11.89c0-1.6328-5.3382-4.2247-7.2165-3.5039-1.9363 0.74303-1.42 3.0608 0.8884 3.9887 3.3844 1.3604 6.3281 1.1348 6.3281-0.48479zm14.866-3.1333c2.066-1.3091 0.42201-4.2831-3.6249-6.5576-7.9494-4.4678-7.1748-8.0464 0.95217-4.3992 13.764 6.1767 9.8411-5.1588-8.3283-24.068-12.034-12.524-13.501-11.775-14.497 7.3985-0.88789 17.091 2.4489 21.728 19.538 27.146 4.6382 1.4707 4.423 1.4534 5.9597 0.4797zm-35.149-12.993c0.77843-12.704 2.0381-21.157 4.2926-28.808 2.5258-8.5713 2.4861-10.626-0.21811-11.304-2.265-0.56849-7.2285 0.88717-7.2298 2.1203-0.00042 0.39948-0.66888 3.8904-1.4855 7.7576-3.5865 16.985-3.8578 32.825-0.66238 38.672 2.3189 4.2431 4.7646 0.35192 5.3032-8.4375zm106.44-9.5291c3.8734-2.4526-8.9649-7.9998-20.996-9.0718-3.6094-0.32163-8.3702-1.1723-10.58-1.8904-7.09-2.31-13.33-1.57-13.33 1.58 0 2.7904 4.8587 4.5823 15.234 5.6184 5.2855 0.5278 13.618 1.7402 18.516 2.6942 4.8984 0.954 9.1172 1.7706 9.375 1.8148 0.25781 0.0442 1.0576-0.29263 1.7772-0.74832zm-122.72-4.67c9.364-2.5894 2.8657-5.4279-14.062-6.1426-6.9609-0.2939-16.031-0.92861-20.156-1.4105-4.125-0.48186-12.141-1.3686-17.812-1.9705-15.009-1.5929-31.841-4.3064-34.052-5.4897-2.3027-1.2324-8.2862-1.3622-9.0073-0.19547-1.1072 1.7915 2.4242 2.8119 18.101 5.2305 8.9606 1.3824 17.398 2.9358 18.75 3.452 1.3519 0.51618 8.5753 1.7552 16.052 2.7533 7.4766 0.99813 16.969 2.3918 21.094 3.0971 8.186 1.3996 17.408 1.6951 21.094 0.67588zm-139.29-11.244c0.70772-1.1451-4.4268-3.1439-7.0998-2.7638-1.2038 0.17118-2.3295 1.0495-2.5015 1.9519-0.34141 1.7913 8.5322 2.5417 9.6013 0.81194zm140.72-5.1564c5.8172-2.6632 9.6897-7.3785 7.8652-9.5769-1.7237-2.0769-5.5306-0.86493-8.5323 2.7164l-2.516 3.0019-13.89-0.0944c-7.6396-0.0519-18.32-0.76016-23.734-1.5738-5.4141-0.81367-12.786-1.7419-16.383-2.0627-7.8627-0.70135-24.963-3.4658-40.336-6.5207-13.491-2.6809-26.411-4.928-32.812-5.7065-5.0779-0.61759-16.226-2.8906-18.549-3.7818-2.2548-0.86525-3.0616 3.084-1.0779 5.276 1.2916 1.4272 2.9377 1.8165 7.8189 1.849 3.4006 0.0226 7.8703 0.64909 9.9328 1.3921 2.0625 0.74303 5.4375 1.3603 7.5 1.3717 2.0625 0.0113 7.2572 0.86148 11.544 1.8891 4.2866 1.0276 8.9656 1.8684 10.398 1.8684 1.4323 0 4.6751 0.65505 7.2062 1.4557 6.3465 2.0074 40.778 6.9512 62.258 8.9392 5.4141 0.50106 12.797 1.2748 16.406 1.7194 8.0848 0.99593 10.747 0.65534 16.901-2.162zm-133.62-6.11c0-1.1963-5.3198-2.9042-9.0461-2.9042-3.5897 0-4.1561 1.5275-1.032 2.7833 2.7728 1.1145 10.078 1.2022 10.078 0.12093zm188.91-15.045c0-1.6084-8.003-4.3436-10.22-3.493-2.1853 0.83858-1.8324 3.3693 0.61051 4.3773 3.2283 1.332 9.6094 0.7448 9.6094-0.88432zm-155.16-2.84c0-1.2082-4.2735-2.2594-5.6718-1.3952-0.80234 0.49587-0.75444 0.88736 0.1811 1.4802 1.7402 1.1027 5.4907 1.0446 5.4907-0.0849zm80.625 0.0375c0-1.3973-1.561-2.0224-7.2989-2.923-2.9465-0.46248-8.5214-1.4894-12.389-2.2821-18.008-3.6912-51.424-7.8135-53.406-6.5884-1.7044 1.0534 0.75375 3.302 3.5989 3.2921 2.7465-0.01 20.654 3.0628 30.254 5.1907 3.4253 0.75924 8.4878 1.4211 11.25 1.4708s7.3424 0.62428 10.178 1.2768c6.2082 1.4285 17.812 1.7953 17.812 0.56312zm-111.97-4.8374c1.6737-2.7082-14.688-9.5852-18.931-7.957-1.4166 0.54358-1.6965 4.0743-0.47576 5.9993 1.4507 2.2876 18.161 3.9732 19.407 1.9576zm215.46-69.984c1.6281-9.412 1.8265-21.797 0.34921-21.797-2.1789 0-4.8032 19.691-3.1859 23.905 0.94464 2.4617 2.2087 1.5222 2.8367-2.1082zm-38.484 0.9375c0.23477-0.38671 0.70463-3.6562 1.0441-7.2656 0.33951-3.6094 0.99285-8.25 1.4519-10.312 4.3356-19.481 5.0534-26.426 3.8106-36.876-0.67254-5.6553-0.9659-10.698-0.6519-11.206 0.31398-0.50805-0.0166-1.4113-0.73457-2.0072-1.6464-1.3664-2.988 13.534-1.9916 22.12 0.53994 4.6522 0.356 5.8776-1.1763 7.8361-3.4212 4.3728-6.7334 27.786-4.8961 34.609 0.95871 3.5604 2.1514 4.7376 3.1438 3.103zm-12.135-5.4673c1.1439-2.9809 0.60214-7.9382-0.93181-8.5268-1.8959-0.72754-3.1538 1.2155-3.1723 4.9004-0.0209 4.1667 2.9047 6.7519 4.1041 3.6264zm24.358-2.3843c0.90851-4.5425 0.69119-12.832-0.35331-13.478-1.5106-0.93357-2.8108 3.8655-2.8108 10.375 0 6.6064 2.0594 8.6261 3.1641 3.103zm-191.23-32.7c0.35921-5.6769 1.0524-11.479 1.5404-12.894 0.50838-1.474 0.57961-5.1748 0.1668-8.6663-0.78943-6.6768 0.0801-17.319 1.5608-19.103 1.2667-1.5262 0.16352-18.576-1.1731-18.13-0.54321 0.18107-1.5087 3.2537-2.1455 6.8281-0.63681 3.5744-1.7947 9.6629-2.573 13.53-5.3821 26.741-6.102 48.03-1.7098 50.559 2.6884 1.5483 3.6359-1.1027 4.3333-12.124zm174.85-19.686c-0.4417-0.77344-0.8482-1.1953-0.90333-0.9375-1.2896 6.0305-1.8186 11.45-1.2132 12.43 0.97459 1.5769 3.073-9.8175 2.1165-11.492zm-189.77 2.3438c0.57258-5.5543 0.96722-7.9094 3.7478-22.366 2.2582-11.741 1.8841-12.84-2.9538-8.6788-2.8783 2.4758-3.5702 6.1472-4.655 24.7-0.87349 14.939 2.4175 20.347 3.8609 6.3444zm209.28-9.0498c-0.8558-9.4379-3.278-9.2246-3.4214 0.3013-0.0892 5.9276 0.64625 7.7589 2.4988 6.2215 1.0693-0.88742 1.2913-2.4573 0.92269-6.5228zm-221.09-3.74c2.2013-6.3145 0.48108-9.5411-3.0226-5.6696-2.6293 2.9054-2.49 8.622 0.21011 8.622 1.1573 0 2.1446-1.0363 2.8125-2.9524zm230.37-3.1676c-0.32418-0.84479-1.1165-1.3605-1.7608-1.146-1.6805 0.55955-2.0013 3.3573-0.58115 5.0685 1.4902 1.7956 3.3444-1.3101 2.3419-3.9226zm-248.29-0.44c6.471-8.6376 14.298-15.559 30.743-27.188 4.0107-2.8359 9.4957-7.1186 12.189-9.517 2.6932-2.3984 5.8642-4.6678 7.0467-5.0431 4.6028-1.4609 11.969-6.7012 19.617-13.956 4.3939-4.1679 9.5187-8.8435 11.389-10.39 8.1885-6.7742 25.371-23.57 27.253-26.64 3.3235-5.4216 12.561-17.26 17.588-22.54 1.2891-1.3539 6.3516-6.8628 11.25-12.242 22.066-24.232 31.997-32.833 36.094-31.261 2.8127 1.0793-0.79768 10.609-4.0309 10.64-2.258 0.02151-7.1924 3.0487-11.301 6.9334-2.2453 2.1227-6.3293 5.9688-9.0754 8.5469-25.66 24.09-28.273 30.253-7.3654 17.376 4.7153-2.9043 10.418-5.828 12.673-6.497 6.3646-1.8882 6.871-2.3554 7.5312-6.9489 0.69847-4.8597 0.59573-4.638 5.8378-12.597 2.1208-3.2201 4.4888-5.8503 5.2623-5.845 6.5188 0.0449 4.8823 12.091-1.8432 13.568-2.9799 0.6545-3.9394 2.3507-1.3297 2.3507 1.9256 0 13.388-7.5359 19.814-13.027 5.6825-4.8557 6.309-7.0794 2.0376-7.2327-1.584-0.05684-4.0088-1.0043-5.3885-2.1054-1.3796-1.1011-4.0905-2.8561-6.0241-3.9001-1.9336-1.0439-3.5156-2.3077-3.5156-2.8084 0-1.3874-6.0484-9.0454-13.219-16.737-6.9219-7.4246-9.8173-8.2317-15.375-4.2855-1.0312 0.73228-4.1953 2.8819-7.0312 4.777s-6.8438 5.0237-8.9062 6.9525c-2.0625 1.9288-6.9141 5.0898-10.781 7.0244-3.8672 1.9346-8.6145 4.9265-10.55 6.6485-1.9351 1.7221-3.9133 3.131-4.3961 3.131-0.48279 0-2.8345 1.6935-5.2261 3.7634s-5.6868 4.4457-7.3226 5.2796c-1.6359 0.83389-4.895 3.2536-7.2426 5.3772-4.6444 4.2013-19.12 15.726-23.958 19.074-1.6594 1.1483-4.4248 3.3801-6.1454 4.9596s-6.3621 4.7724-10.314 7.0953c-3.9523 2.3229-7.7327 4.8821-8.4007 5.687-0.66804 0.80495-5.2594 4.1391-10.203 7.4093-4.9437 3.2702-9.8118 6.8618-10.818 7.9813-1.0063 1.1195-3.9917 3.4226-6.6344 5.118-2.6426 1.6953-8.5489 6.4985-13.125 10.674-18.726 17.086-21.535 19.544-23.519 20.585-6.6819 3.5048-9.9819 13.315-6.4101 19.055 4.4855 7.2092 9.8007 15.174 13.641 20.442 2.0675 2.8359 4.0264 6 4.3533 7.0312 2.4477 7.7228 10.498 9.4683 15.133 3.2812zm274.23-6.4975c-0.32087-6.8806-3.2306-13.19-6.0829-13.19-1.2188 0-0.19482 7.4886 1.5881 11.614 0.69353 1.6047 1.5029 3.6909 1.7986 4.6362 1.0022 3.2034 2.8884 1.0627 2.6962-3.0599zm-188.72-11.92c0-0.73147-0.59037-2.2643-1.312-3.4063-1.5432-2.4425-0.39467-10.962 3.187-23.639 3.3033-11.692 3.3058-11.719 1.0999-11.719-2.3941 0-4.85 3.3532-4.85 6.6221 0 1.3502-0.65849 4.5258-1.4633 7.057-0.80482 2.5312-1.8004 6.9224-2.2124 9.7584-0.41201 2.8359-1.329 7.2028-2.0377 9.704-1.2283 4.3351-1.1928 4.6254 0.76031 6.2069 2.3355 1.8912 6.8281 1.5066 6.8281-0.58446zm153.1-0.87871c3.9224-1.3365 4.48-1.891 5.4215-5.3906 1.1609-4.3154 7.9276-13.941 12.181-17.328 2.8038-2.2325 3.6527-4.8631 1.5626-4.8422-2.0933 0.0209-12.204 10.66-14.022 14.754-2.1544 4.8528-4.1897 5.1515-5.018 0.73653-0.97297-5.1863-2.524-5.7484-6.4208-2.327-9.0876 7.979-4.65 18.127 6.2957 14.398zm-169.2-6.7134c0.59339-1.9336 2.1786-7.0253 3.5226-11.315 2.6508-8.4604 2.5781-9.125-0.90363-8.2512-2.9 0.72786-4.356 4.8126-4.2176 11.832 0.056 2.8359-0.20647 6.5273-0.58314 8.2031-0.95854 4.2645 0.84832 3.8763 2.1817-0.46875zm50.771-1.875c-0.0201-2.5723-1.0698-5.8594-1.8712-5.8594-1.1696 0-1.7109 2.2635-1.1914 4.9813 0.52956 2.7702 3.0831 3.5023 3.0626 0.87808zm113.73-129.85c8.2909-5.8123 21.29-17.691 21.29-19.454 0-1.6546-1.7286-1.0076-5.013 1.8761-1.7618 1.5469-3.6465 2.8125-4.1882 2.8125-0.54171 0-1.2523 0.84237-1.579 1.8719-0.32678 1.0296-2.57 2.9962-4.9851 4.3702-5.2121 2.9655-10.485 7.6979-10.485 9.4105 0 1.781 1.5492 1.5039 4.9598-0.88703zm-157.45-13.095c4.3116-3.0305 5.4933-4.3519 4.8388-5.4109-1.1162-1.806-9.8503 3.7167-9.8503 6.2284 0 1.8219 1.6359 1.555 5.0115-0.81757zm70.68-23.233c0.5153-3.0083-1.4102-4.1662-6.9722-4.1928-4.7402-0.02262-5.4409 0.20471-5.4409 1.7654 0 3.4347 11.844 5.7507 12.413 2.4274zm22.239 174.61c0.35301-1.9336 1.37-4.7812 2.2599-6.3281 0.88993-1.5469 2.6123-5.3438 3.8274-8.4375 1.2152-3.0938 2.5655-6.0258 3.0007-6.5156 0.43524-0.48984 0.79133-1.7932 0.79133-2.8964 0-1.2297 0.90682-2.419 2.3438-3.0737 1.2891-0.58734 2.3438-1.6241 2.3438-2.304 0-1.764 6.5923-7.8484 9.375-8.6529 1.2891-0.37264 3.6592-1.4732 5.2669-2.4456 3.5358-2.1387 4.6744-2.2128 5.3889-0.35075 1.003 2.6137-1.4902 6.0188-5.8781 8.0282-2.3699 1.0853-5.2946 2.448-6.4994 3.0281-2.5468 1.2265-7.1531 6.7837-8.8325 10.656-0.6405 1.4768-1.9244 3.7322-2.853 5.0121-3.1533 4.346-7.9021 12.909-8.5166 15.357-0.98739 3.9341-2.7602 2.9878-2.0181-1.0772zm-12.62-6.67c0-2.4792 15.804-21.227 18.657-22.133 1.0942-0.3473 1.5025-1.6808 1.5125-4.94 0.0107-3.5052 0.833-5.8742 3.8273-11.027 2.0975-3.6094 4.382-8.0391 5.0766-9.8438 0.69464-1.8047 2.6849-4.9688 4.4229-7.0312 1.7379-2.0625 3.5972-4.2987 4.1316-4.9693 2.6744-3.3559 4.9761 4.9056 2.6024 9.3409-0.80897 1.5116-0.58332 2.7266 1.0934 5.8872 2.8685 5.4072 2.1391 6.5516-5.3873 8.4527-3.523 0.8899-7.3376 1.984-8.4767 2.4313-2.552 1.0021-5.8976 7.3248-5.8976 11.146 0 2.2316-0.4921 2.9555-2.3214 3.4146-2.5814 0.6479-6.1516 4.3824-13.147 13.753-4.3945 5.8862-6.0938 7.425-6.0938 5.5186zm116.68-10.511c-0.34183-0.5531 0.47275-3.444 1.8102-6.4242 4.3585-9.712 0.28219-17.802-8.3721-16.616-25.648 3.5155-49.089-13.622-55.365-40.478-1.2862-5.5039-2.5873-11.001-2.8915-12.216-0.59732-2.3864 1.0116-4.0434 3.1349-3.2287 0.69157 0.26538 2.3186 3.9615 3.6155 8.2136 7.2022 23.612 20.752 34.267 45.922 36.109 14.182 1.038 22.031 8.6191 22.031 21.28 0 6.4655-7.7086 16.884-9.8859 13.361zm-120.43-8.66c0-0.67697 1.2656-2.4434 2.8125-3.9254 3.2722-3.135 3.7453-1.6546 0.76119 2.3817-2.1855 2.9561-3.5737 3.5557-3.5737 1.5437zm7.5-34.044c0-0.94393 5.5142-11.541 9.5007-18.258 4.2965-7.2397 16.494-20.537 18.835-20.532 5.5465 0.0106 4.6427 7.3767-1.5542 12.666-7.0903 6.0522-11.943 10.993-16.937 17.245-6.6728 8.3534-9.8438 11.214-9.8438 8.8793z"/>
</svg>
