<?xml version="1.0" encoding="UTF-8" standalone="no"?>
<svg xmlns:rdf="http://www.w3.org/1999/02/22-rdf-syntax-ns#" xmlns="http://www.w3.org/2000/svg" height="645" viewBox="0 0 328.125 645" width="328.12" version="1.1" xmlns:cc="http://creativecommons.org/ns#" xmlns:dc="http://purl.org/dc/elements/1.1/">
<path d="m67.085 644.15c-0.66846-1.0816 0.25405-3.3298 3.3054-8.0553 3.5909-5.5611 8.6081-14.153 12.591-21.562 1.9403-3.6094 4.2555-7.4062 5.1451-8.4375 0.88952-1.0312 2.9712-4.4062 4.6261-7.5 1.6548-3.0938 4.2438-7.1823 5.7532-9.0856 1.5095-1.9034 2.7445-3.709 2.7445-4.0126 0-0.61617 9.853-16.02 13.51-21.121 1.2938-1.8047 4.4787-6.1866 7.0776-9.7375 2.5989-3.551 4.7252-6.8193 4.7252-7.2629 0-0.44366 1.427-2.3899 3.1712-4.325s4.1131-5.5269 5.2643-7.9818 4.1538-6.3162 6.6725-8.5807c2.7679-2.4886 4.5794-4.9098 4.5794-6.1208 0-2.6101 3.0168-8.4774 5.5252-10.746 2.2477-2.0328 2.6783-6.1828 0.64156-6.1828-1.6313 0-8.0418 7.3185-8.0418 9.181 0 1.5744-11.797 19.388-16.891 25.507-1.932 2.3203-6.2768 8.8594-9.6553 14.531-3.3784 5.6719-7.3306 12.155-8.7826 14.406-1.452 2.2514-4.5758 7.2055-6.9419 11.009-2.366 3.8035-4.9528 7.6568-5.7484 8.5627-0.79558 0.90597-4.6061 6.9206-8.4678 13.366-3.8617 6.4453-9.5404 15.727-12.619 20.625-3.0789 4.8984-7.0014 11.566-8.7166 14.817-6.9955 13.259-12.23 8.8734-7.0545-5.911 4.1597-11.883 4.7247-13.098 7.4115-15.938 1.4638-1.5469 3.6487-4.7563 4.8554-7.132s3.193-5.5398 4.414-7.0312c2.8615-3.4953 10.973-15.813 13.206-20.054 1.9164-3.6396 8.3471-13.215 18.89-28.127 3.8277-5.4141 9.1019-14.062 11.72-19.219 2.6186-5.1562 6.209-11.127 7.9788-13.269 1.7698-2.1415 4.495-6.0599 6.0561-8.7075s3.729-5.747 4.8175-6.8876c1.0885-1.1405 2.9714-3.6203 4.1841-5.5105s2.6508-3.7124 3.1957-4.0492c0.54493-0.33678 0.76117-0.98386 0.48052-1.438-1.7621-2.8511-16.135 13.15-28.677 31.927-1.3411 2.0077-3.8914 5.458-5.6674 7.6674s-5.711 7.814-8.7446 12.455c-3.0336 4.6406-6.2148 9.4922-7.0695 10.781-0.85466 1.2891-2.6182 4.2422-3.9189 6.5625s-3.1984 5.6953-4.2171 7.5-4.5261 8.3438-7.7943 14.531c-3.2681 6.1875-8.2487 14.611-11.068 18.718-2.8193 4.1073-5.5033 8.8345-5.9645 10.505-0.961 3.49-3.584 3.39-3.584-0.14 0-4.0004 20.009-48.165 22.526-49.721 1.172-0.72433 7.0983-11.901 7.7934-14.698 0.34538-1.3898 2.311-4.4714 4.368-6.8481 3.6067-4.1672 5.2407-7.7155 4.532-9.8416-0.18624-0.55871-1.9973 1.1592-4.0246 3.8176s-5.2911 5.8956-7.2529 7.1939c-1.9618 1.2982-3.5669 2.6467-3.5669 2.9966 0 1.0025-3.7249 4.7397-4.724 4.7397-1.7191 0-0.88634-3.406 1.9115-7.8178 1.5469-2.4392 2.8125-5.0281 2.8125-5.7532s0.37526-1.5503 0.83392-1.8338c1.788-1.1051 1.7165-7.0953-0.08467-7.0953-2.1874 0-2.3466 0.54653 2.6317-9.0335 4.1498-7.9857 4.2954-8.5368 3.7298-14.112-0.5005-4.9332-0.34003-5.9586 1.0722-6.8513 1.2039-0.76098 1.3338-1.1868 0.47219-1.5478-0.65374-0.27392-1.8257-1.1351-2.6043-1.9137-1.1484-1.1484-1.6837-1.1932-2.8355-0.23728-2.8968 2.4042-3.6934-0.42663-3.5251-12.527 0.20677-14.867 4.9558-27.84 10.192-27.84 0.70283 0 2.6235-2.0039 4.2682-4.4531 3.2687-4.8676 10.176-12.422 11.357-12.422 2.3175 0-0.20997 4.8484-7.8195 15-11.984 15.988-14.375 27.897-7.2891 36.318 9.6947 11.522 10.84 11.86 9.8822 2.9135-2.2476-20.984-1.4669-34.578 1.7564-30.582 0.33567 0.41617 3.4094 23.916 4.3254 33.069 1.0219 10.212 1.1045 10.501 2.519 8.8276 2.5925-3.0674 7.7484-10.922 9.0191-13.739 0.75322-1.6701 2.6586-4.9102 4.2342-7.2002s2.8647-4.3959 2.8647-4.6797 1.5775-2.95 3.5056-5.9248c5.3951-8.3241 5.6522-8.9393 4.5231-10.824-1.1955-1.9958 1.158-6.5066 7.9223-15.184 10.426-13.374 18.257-30.952 19.746-44.322 0.75344-6.7629 1.4706-9.5629 2.7563-10.762 4.7607-4.4402 3.1959-13.677-5.6809-33.535-7.5328-16.851-9.4126-32.713-4.7779-40.316 1.0989-1.8026 1.9995-4.3904 2.0014-5.7507 0.009-6.4843 6.3799-23.273 11.859-31.251 0.69845-1.0171 1.2699-3.7993 1.2699-6.1828 0-4.3124 1.9116-7.4367 4.5502-7.4367 1.8656 0 2.9838 4.3104 1.9141 7.3789-0.52948 1.5189-0.81353 4.3823-0.63124 6.3632l0.33144 3.6016 1.1133-2.5781c1.2217-2.829 2.0795-3.1584 3.7847-1.4531 1.9191 1.9191 1.346-1.9737-1.2008-8.1562-3.3044-8.0215-3.069-13.594 0.57435-13.594 1.0927 0 2.1771 0.99748 2.7648 2.5432 0.5318 1.3988 3.0526 4.7485 5.6018 7.4439 5.7698 6.1008 5.8152 5.5598-1.3642 16.263-6.1495 9.1677-6.9456 11.027-3.246 7.5801 3.2039-2.9849 4.6946-2.0155 3.1204 2.0292-0.48471 1.2454-0.1627 1.6406 1.3368 1.6406 1.0864 0 1.9753 0.42187 1.9753 0.9375 0 0.51562-0.42188 0.9375-0.9375 0.9375-0.51563 0-0.9375 0.58116-0.9375 1.2915 0 0.7103-0.65719 1.8369-1.4604 2.5035-2.0713 1.719-4.1646 7.1394-4.1646 10.784 0 2.9237-1.948 6.0462-3.772 6.0462-0.88075 0-7.478 10.768-7.478 12.205 0 0.47009-1.2656 2.8504-2.8125 5.2896-4.496 7.0896-3.5554 14.217 3.493 26.467 0.35401 0.61526 3.0695-1.9412 3.0695-2.8897 0-0.48723-0.81511-0.62717-1.8114-0.31098-1.5391 0.48849-1.8126 0.1105-1.8195-2.515-0.005-1.6994-0.50776-6.5082-1.1183-10.686l-1.1101-7.5962 3.2432-5.06c5.8515-9.1294 14.317-11.762 12.015-3.737-0.79114 2.7585-0.69601 2.9737 1.199 2.7116 2.8408-0.39286 3.1722 2.8303 0.70681 6.8741-2.2775 3.7356-2.5357 7.3725-0.52345 7.3725 1.6988 0 1.7981 1.8642 0.27728 5.2021-0.95983 2.1066-0.88961 2.6118 0.46875 3.372 1.732 0.96925 2.1806 5.0176 0.66022 5.9572-0.51563 0.31867-0.9375 1.2656-0.9375 2.1043 0 0.83868-0.80574 2.3958-1.7905 3.4603-0.9848 1.0645-3.0632 4.2557-4.6186 7.0917-2.846 5.1889-5.1522 7.5012-6.3183 6.335-0.34647-0.34647 0.26611-2.1486 1.3613-4.0048s1.9912-4.1945 1.9912-5.1963 0.37249-1.8214 0.82775-1.8214c0.78549 0 5.758-9.6086 5.7139-11.041-0.0354-1.153-3.6734 3.8329-5.32 7.2913-0.85923 1.8047-2.7512 4.8185-4.2045 6.6974-2.2155 2.8645-2.6422 4.3122-2.6422 8.9645 0 3.6298-0.64837 6.8903-1.875 9.4292-1.0312 2.1344-1.879 5.6942-1.8838 7.9105-0.0102 4.6666-3.2744 21.562-4.6693 24.168-1.3237 2.4733-1.2067 2.83 0.92815 2.83 2.4183 0 2.5411 3.8549 0.23437 7.3593-0.90234 1.3709-2.0625 3.1698-2.5781 3.9976-0.51563 0.82782-1.7554 2.7244-2.755 4.2147-11.134 16.599-20.123 31.323-24.833 40.678-1.6875 3.3516-4.2335 7.5788-5.6579 9.3939s-3.4666 5.0191-4.5385 7.12c-2.4794 4.86-7.9992 9.7361-11.021 9.7361-1.6431 0-2.6051 0.71207-3.2486 2.4048-2.18 5.7338 0.27295 6.9215 4.4691 2.1639 1.4219-1.6122 5.0422-5.5145 8.0451-8.6719 3.0028-3.1573 7.203-8.0609 9.3336-10.897 2.1306-2.8359 6.2331-8.1094 9.1166-11.719 10.731-13.432 12.606-16.453 11.405-18.376-0.60282-0.96528-1.096-2.8174-1.096-4.1158 0-2.2257 1.4168-4.5122 13.745-22.182 2.7528-3.9457 5.0051-7.6359 5.0051-8.2004 0-0.56453 1.4149-2.6097 3.1441-4.5448 5.1908-5.8086 17.687-23.752 20.731-29.768 2.5009-4.9428 3.2137-5.6605 5.8768-5.9176 2.3131-0.22337 3.8588-1.3332 6.5282-4.6875 11.927-14.987 44.207-44.239 48.819-44.239 0.48764 0 2.8135-1.6961 5.1685-3.7691s5.7794-4.3948 7.6096-5.1595c1.8501-0.77304 3.9548-2.6031 4.7401-4.1216 3.535-6.8359 9.2504-4.6492 14.73 5.6355 2.2246 4.1752 5.8408 9.6954 8.0359 12.267s3.9911 5.2684 3.9911 5.9928c0 0.72441 1.4283 1.9139 3.1739 2.6433 2.6682 1.1148 3.2456 1.9011 3.6235 4.9344 0.24729 1.9846 1.0249 4.9901 1.7281 6.679 2.3127 5.5548-3.1962 9.3922-6.8197 4.7505l-1.7144-2.1962-3.0426 3.4639c-5.114 5.8221-12.724 16.098-14.974 20.218-1.1723 2.1474-5.4441 7.3255-9.4929 11.507-4.0488 4.1814-10.241 11.263-13.761 15.738-8.2446 10.48-13.338 16.674-19.33 23.505-2.6554 3.0272-5.5777 6.7137-6.4938 8.1922-7.5515 12.187-10.532 16.392-14.317 20.195-5.1176 5.1425-9.2457 10.123-11.861 14.31-2.4536 3.9288-10.103 15.067-13.365 19.46-2.4768 3.3356-5.1785 5.0044-9.1207 5.6338-1.3571 0.21665-2.0219 1.2886-2.4562 3.9604-0.61355 3.7746-2.7935 6.1602-5.6291 6.1602-0.89042 0-3.4465 2.1469-5.6802 4.7708s-6.0506 6.8483-8.4821 9.3874-5.5723 6.6149-6.9796 9.0573-4.4299 6.5501-6.7169 9.1282c-5.1992 5.861-9.9007 12.845-15.144 22.497-3.7587 6.9191-6.3939 10.737-17.15 24.847-2.1619 2.8359-5.317 7.8336-7.0113 11.106s-4.2657 7.7021-5.7141 9.8438-3.9786 6.2772-5.6225 9.1899c-5.8895 10.435-10.529 5.4524-6.2409-6.7022 3.1805-9.0146 1.0124-6.7699-7.6968 7.9688-9.0714 15.352-15.358 20.638-18.5 15.555zm80.752-106.47c0.61478-1.128 2.8063-3.1682 4.87-4.5339 2.0638-1.3657 4.9115-4.4965 6.3283-6.9572 1.4168-2.4608 3.3567-5.5288 4.3108-6.8179 0.95412-1.2891 2.4958-3.3647 3.426-4.6126 1.1435-1.534 2.7904-2.3554 5.0849-2.5361 7.3351-0.57767 9.5662-4.2169 6.7369-10.989-1.4977-3.5845-3.6448-3.8455-4.5071-0.54791-0.27227 1.0412-1.2846 1.8102-2.383 1.8102-2.239 0-4.8284 3.3091-4.8284 6.1704 0 1.1017-1.7862 4.0324-3.9694 6.5126s-5.0308 6.081-6.3281 8.0016c-3.5563 5.2652-12.281 15.878-13.053 15.878-0.37362 0-1.5969 1.6327-2.7184 3.6282s-2.6758 4.1565-3.4539 4.8023c-0.7781 0.64578-1.4147 1.8272-1.4147 2.6254 0 1.5231 9.9704-8.8957 11.899-12.434zm-47.196-19.286c3.4055-7.8094 3.5428-13.758 0.39057-16.91-3.7831-3.7831-5.7952-3.6596-5.0364 0.30904 1.9344 10.118 1.8784 10.866-1.1825 15.79-1.6155 2.5987-2.9372 4.8429-2.9372 4.987 0 2.6879 7.286-0.78358 8.7655-4.1764zm85.227-21.586c0.90693-1.7699 2.7841-5.7492 4.1714-8.843 1.3874-3.0938 2.6844-5.9414 2.8823-6.3281 1.3346-2.608-1.6772 0.0325-3.5595 3.1206-1.2819 2.1031-3.014 4.1978-3.8491 4.6551-2.2004 1.2047-4.7913 7.1763-4.0825 9.4095 0.82168 2.5889 2.4597 1.8454 4.4374-2.0141zm94.878-122.05c0.81261-1.1602 1.7858-2.1012 2.1625-2.0912 0.37679 0.01 3.1108-2.575 6.0757-5.7445 5.274-5.638 6.7312-8.8049 4.0513-8.8049-1.6782 0-4.2857 2.5411-4.2857 4.1766 0 0.6766-1.5969 2.6729-3.5486 4.4361-3.7146 3.3559-8.2537 10.137-6.7854 10.137 0.469 0 1.5176-0.94922 2.3302-2.1094zm4.3155-21.361c1.9814-1.0604 2.47-5.0755 0.74724-6.1403-1.2686-0.78406-4.5082 3.1209-4.538 5.4701-0.0237 1.8666 1.1631 2.0764 3.7908 0.67015zm-114.9-25.03c0.89798-1.9336 2.1603-4.1484 2.8051-4.9219 0.64483-0.77344 1.3595-2.7627 1.5882-4.4207l0.41581-3.0144-4.5204 2.4603c-4.8113 2.6186-5.2653 3.8282-3.9344 10.483 0.76793 3.8397 1.6567 3.6968 3.6456-0.58594zm-6.1058 243.75c0.0004-1.418 1.266-5.2527 2.8125-8.5217 2.931-6.1956 3.4463-8.153 1.8936-7.1934-4.1666 2.5751-5.4444-4.6878-1.7552-9.9765 0.95472-1.3687 1.7358-2.8966 1.7358-3.3954 0-0.49876 2.0596-4.0618 4.5768-7.9178s5.2934-8.521 6.1692-10.367c0.8758-1.8456 3.0235-4.8293 4.7728-6.6304 1.7492-1.8011 4.353-5.1004 5.7862-7.3318s5.658-7.1309 9.3886-10.888c3.7305-3.7569 9.0461-9.8741 11.812-13.594 2.7662-3.7197 5.9919-7.6068 7.1682-8.638s3.8433-4.1712 5.9268-6.9778c10.716-14.435 63.153-69.5 70.65-74.19 1.6332-1.0219 5.3982-5.0289 8.3666-8.9044 4.0554-5.2946 5.8784-6.9772 7.3334-6.7682 4.3696 0.62771 3.3495 2.8928-10.592 23.518-3.4117 5.0473-7.487 11.237-9.0564 13.756-1.5694 2.5183-5.5772 7.8424-8.9062 11.831-6.116 7.3285-10.2 12.762-14.74 19.611-1.3672 2.0625-4.4016 5.8867-6.743 8.4982-3.9158 4.3675-8.8704 10.808-16.668 21.666-1.6698 2.3253-6.7383 8.302-11.263 13.282-4.525 4.9797-12.499 14.327-17.721 20.773-5.2214 6.4453-12.49 15.305-16.153 19.688-9.5776 11.461-13.781 17.059-20.816 27.724-8.285 12.56-13.981 17.021-13.979 10.948zm16.527-29.051c1.9957-2.4431 4.2614-5.0971 5.0348-5.8978 0.77344-0.80067 3.0219-3.4489 4.9966-5.885s4.7672-5.0379 6.2056-5.7817c2.0047-1.0367 2.5168-1.8678 2.1933-3.5598-0.3154-1.6499 0.95853-3.9034 5.0444-8.9232 3.0065-3.6937 8.4195-10.334 12.029-14.757 3.6094-4.4227 8.4609-10.524 10.781-13.558 6.5227-8.5287 9.3235-12.06 15.993-20.164 7.4221-9.0194 10.62-13.544 10.006-14.157-0.61476-0.61476-10.004 9.8133-16.123 17.907-2.7288 3.6094-5.907 7.4062-7.0625 8.4375-1.1555 1.0312-5.7259 6.5156-10.156 12.188-4.4305 5.6719-11.316 13.898-15.302 18.281-7.2683 7.9929-8.6661 9.7375-19.422 24.241-5.1229 6.908-9.4959 14.076-9.4959 15.565 0 1.5339 2.0716-0.0111 5.2777-3.9359zm19.097 11.849c0-3.8403 2.3759-8.7796 6.7487-14.03 1.9601-2.3535 3.5661-4.6738 3.569-5.1562 0.003-0.48244 2.3638-3.8303 5.2464-7.4397 2.8827-3.6094 5.6811-7.4062 6.2187-8.4375 0.53762-1.0312 3.3447-4.5841 6.238-7.8952 2.8932-3.3112 6.1042-7.3718 7.1354-9.0238s5.0046-6.4377 8.8297-10.635 8.0037-9.2069 9.2858-11.132c1.2822-1.9256 3.0972-4.2442 4.0334-5.1525s3.4178-4.1778 5.5147-7.2656 4.143-5.6142 4.5469-5.6142c0.40388 0 2.975-2.7961 5.7135-6.2135 2.7386-3.4174 8.4269-10.062 12.641-14.766 4.2139-4.7037 8.6242-9.8178 9.8007-11.365 6.382-8.3909 24.554-25.901 26.582-25.613 4.8229 0.68481 2.775 6.7626-5.2133 15.473-2.7505 2.999-6.8189 7.984-9.0408 11.078-2.2219 3.0938-6.0335 7.7344-8.4701 10.312-4.9075 5.1925-16.879 20.781-16.879 21.979 0 0.41945-2.0039 2.891-4.4531 5.4922-2.4492 2.6013-8.4609 9.297-13.359 14.879-12.312 14.031-13.986 15.536-19.44 17.483-4.8819 1.7422-6.6793 3.9596-8.2194 10.14-0.33889 1.3599-3.536 5.9238-7.1048 10.142-3.5687 4.2182-6.9674 8.59-7.5527 9.715-8.0208 15.417-22.371 30.201-22.371 23.047zm-162.19-10.51c0-1.1889 1.0874-3.6147 2.4164-5.3906 1.329-1.776 3.1902-4.7056 4.136-6.5103 2.104-4.0147 7.2656-9.375 9.0276-9.375 2.7658 0 1.304 3.1471-8.3829 18.047-3.777 5.81-7.197 7.35-7.197 3.23zm18.75-12.316c0-2.2806 3.4622-9.1357 4.9256-9.7526 0.42277-0.17822 1.9773-1.341 3.4545-2.584 6.2104-5.2258 6.6643-0.82765 0.68701 6.6581-6.5252 8.172-9.0671 9.7639-9.0671 5.6786zm-10.312-13.42c0-0.90784 1.9991-4.5992 4.4425-8.2031 6.6008-9.7359 6.247-19.623-0.92872-25.95-2.2484-1.9826-1.8153-4.6888 0.94482-5.9028 2.5953-1.1416 2.6114-2.5891 0.08919-7.9808-4.6299-9.8972 0.4778-38.719 7.9536-44.88 0.859-0.7 1.561-1.7 1.561-2.21 0-2.1223 8.1678-10.454 12.825-13.083 7.9975-4.5135 9.1134-11.073 1.8836-11.073-3.0355 0-5.3958-15.663-3.4968-23.205 1.0249-4.0703 0.93866-4.4387-2.1165-9.0401-7.3978-11.142-8.1803-15.679-3.3982-19.703 3.8649-3.252 5.5531-3.1349 5.5531 0.38542 0 1.5469-0.42188 2.8125-0.9375 2.8125s-0.9375 0.42187-0.9375 0.9375c0 0.51562 1.1074 0.9375 2.4609 0.9375 2.2344 0 2.4092 0.25893 1.8984 2.8125-0.58141 2.907 0.35007 3.6898 1.9524 1.6406 2.6203-3.3511 3.1119-12.891 0.66418-12.891-0.741 0-1.349-0.64-1.349-1.42 0-1.0134-0.61516-1.2697-2.1332-0.8887-4.0348 1.0127-8.3348-12.714-5.4239-17.314 1.2301-1.9439 3.5225 0.18987 4.2855 3.9889 1.5405 7.6701 6.5076 12.527 6.5774 6.4316 0.01348-1.1781 0.59657-2.4955 1.2957-2.9276 0.95945-0.59297 0.7235-0.95676-0.96201-1.4833-6.7878-2.1203-2.4169-15.648 4.4953-13.913 1.9543 0.49049 2.0529 0.2915 1.5268-3.0818-0.74074-4.7503-1.9109-7.8249-2.978-7.8249-0.98764 0-6.1272-10.43-7.045-14.297-0.46912-1.9765-0.26889-2.5781 0.85803-2.5781 1.7648 0 5.0787-6.8875 5.1077-10.616 0.03008-3.8677-2.9098-2.9498-3.978 1.242-0.45966 1.8039-1.2246 3.6806-1.6998 4.1704-0.47526 0.48985-0.86411 1.6604-0.86411 2.6013 0 0.96213-1.0256 2.1006-2.3438 2.6018-1.2891 0.4901-2.3438 1.2722-2.3438 1.7381 0 0.46583-1.2294 1.3562-2.7321 1.9786-2.827 1.171-3.7498 2.8864-5.7873 10.757-0.91458 3.5332-0.93581 4.7179-0.08963 5 2.441 0.81366 1.0452 3.9578-2.5774 5.806-3.577 1.8248-5.6823 3.7824-4.0679 3.7824 1.4072 0 15.913-6.2606 18.172-7.843 2.5533-1.7884 5.52-2.0161 5.52-0.42356 0 5.6626-21.654 19.517-30.504 19.517-11.101 0-12.966-23.459-3.1001-38.988 1.9941-3.1386 5.0441-9.8886 6.7777-15s4.26-11.692 5.6142-14.624c2.83-6.1262 2.5328-7.858-2.2917-13.353-3.4145-3.8889-3.4781-8.6199-0.271-20.155 1.718-6.1793 0.48596-18.722-1.8566-18.901-7.8408-0.60106-19.841 1.3072-27.756 4.4136-21.069 8.27-24.424 8.54-24.424 1.91 0-5.6422 0.35637-6.1008 8.4375-10.859 2.8359-1.6699 7.3833-4.433 10.105-6.1402 2.722-1.7072 7.1517-3.8033 9.8438-4.6579 2.6921-0.85463 6.5822-2.3645 8.6447-3.3552 2.0625-0.99075 6.9141-2.7232 10.781-3.85 7.3524-2.1422 8.8483-2.9511 8.9396-4.8343 0.16076-3.3162 1.7223-10.653 2.467-11.591 1.0301-1.2969 0.12745-51.377-1.1464-63.608-0.484-4.63-1.309-14.546-1.835-22.022-1.113-15.846-3.331-30.244-5.221-33.899-0.731-1.414-1.329-3.303-1.329-4.198 0-0.89472-0.87193-2.5549-1.9376-3.6893-2.908-3.096-1.692-8.533 2.29-10.234 7.464-3.189 13.186-5.168 14.94-5.168 2.7215 0 8.1447-2.0848 8.1447-3.131 0-1.2603-9.9194-0.15894-15.322 1.7012-7.2513 2.4969-10.179-1.5034-4.77-6.5167 7.4151-6.8721 29.175-10.245 93.685-14.523 6.7031-0.44452 18.938-1.3714 27.188-2.0598 65.054-5.4278 84.332 1.5115 83.785 30.158-0.16411 8.597 1.8102 33.915 4.8743 62.508 1.1621 10.844 0.83644 13.973-1.3662 13.128-1.3032-0.50008-3.1859 11.474-2.0844 13.256 0.2632 0.42587 0.90862 3.9072 1.4342 7.7364 1.4493 10.558 3.5031 18.857 6.0459 24.431 1.2624 2.7672 3.3445 7.4098 4.6268 10.317 2.0024 4.5395 2.8416 5.4522 5.9452 6.466 1.9875 0.64926 5.084 1.9622 6.881 2.9176 1.797 0.95539 4.1648 1.7371 5.2617 1.7371s5.1109 1.3361 8.9201 2.9691 11.324 4.4807 16.699 6.3281c11.93 4.1002 13.926 6.76 8.627 11.495-3.9179 3.5006-7.8006 3.4517-13.244-0.16683-2.3203-1.5425-5.3023-2.8063-6.6267-2.8085-1.3244-0.002-4.4884-0.61671-7.0312-1.3656-8.4773-2.4966-17.5-3.419-31.28-3.198-19.429 0.31161-23.292 0.16581-29.3-1.1057-8.7124-1.8439-19.512-0.46508-19.512 2.4912 0 4.0815-7.779 26.013-15.744 44.386-2.1585 4.9793-2.653 11.288-0.88486 11.288 1.4885 0 2.566-1.8837 2.566-4.486 0-5.657 11.37-35.42 15.988-41.85 4.6335-6.452 13.772-7.0742 12.765-0.86911-0.63184 3.8936 0.4995 4.0132 3.1222 0.33002 3.0958-4.3477 6.031-3.8531 5.2728 0.88839l-0.5918 3.7009 4.8448 0.28348c4.7779 0.27956 4.8593 0.33528 5.8926 4.0335 1.4484 5.1837 2.5257 4.6956 3.8079-1.7253 0.60132-3.0114 1.6894-5.8526 2.4178-6.3138 1.6224-1.027 3.6632-1.1179 3.6826-0.16404 0.0459 2.2476 1.6536 3.1921 3.4858 2.0478 2.8162-1.7588 4.7819-0.4695 6.8531 4.4948 1.0264 2.4602 2.6601 5.9496 3.6305 7.7543 20.138 37.454 23.798 63.513 11.796 83.993-6.0352 10.298-10.144 9.242-5.3128-1.3657 5.4792-12.029 4.6784-19.846-3.8323-37.411-4.0939-8.449-4.1464-7.8786-0.71808 7.7939 0.45611 2.0851 0.96375 4.4054 1.1281 5.1562 0.18294 0.83583-0.42029 1.3651-1.5558 1.3651-1.8898 0-6.8635-8.4632-6.9922-11.898-0.13572-3.6211-1.859-2.3373-2.4181 1.8015-0.33223 2.4592-1.2968 7.0025-2.1434 10.096-0.85301 3.1169-1.448 8.3032-1.3344 11.631 0.1433 4.1979-0.3921 7.6441-1.7781 11.445-2.4389 6.6889-1.8958 10.509 1.3771 9.688 5.5709-1.3982 4.9929 8.9267-0.6505 11.62-2.7071 1.2919-2.9128 2.6253-1.0795 6.9994 0.53479 1.2759 0.21168 1.8271-1.3033 2.2233-1.5043 0.39339-1.9506 1.1423-1.7624 2.9576 0.39079 3.7697-2.1569 3.5017-6.9677-0.73288-4.8922-4.3063-7.1046-9.0455-7.936-17-0.68005-6.5064-1.1835-6.6765-6.2396-2.1086-4.0076 3.6206-5.7503 2.9984-3.0679-1.0954 0.8219-1.2544 1.4949-2.8229 1.4955-3.4856 0.00063-0.66268 1.0672-2.4445 2.3702-3.9596 3.4756-4.0415 4.5419-10.627 1.1755-7.2609-0.61015 0.61015-2.2959 1.1094-3.746 1.1094-2.1914 0-3.2097 0.91033-6.0301 5.3906-4.0467 6.4284-7.7232 10.547-9.4149 10.547-1.7753 0-1.5147-1.3276 0.64415-3.2812 1.0312-0.93327 1.875-2.0617 1.875-2.5077 0-0.44596 1.1298-2.5954 2.5106-4.7766 5.7972-9.1573 9.8612-18.497 8.0486-18.497-0.39957 0-1.331 1.3711-2.0698 3.0469-5.7706 13.089-16.131 23.537-21.614 21.797-2.7909-0.88581-2.5755-5.1562 0.26015-5.1562 5.5045 0 15.347-12.999 18.978-25.065 1.386-4.6054 0.83476-28.195-0.62478-26.736-0.82665 0.82665-2.3641 7.3762-3.2986 14.052-0.69851 4.9901-2.5792 6.8246-4.7603 4.6435-1.8477-1.8477-1.9255-7.7369-0.22779-17.237 1.9256-10.775 0.0847-10.943-3.0868-0.28237-1.1601 3.8996-1.3734 11.715-0.40934 15 1.7543 5.9783-6.7876 7.8482-10.946 2.3962-2.1294-2.7917-2.863-3.2182-3.9638-2.3046-1.6215 1.3457-4.8995-1.3227-8.4394-6.8698-2.7465-4.3039-2.7647-5.493-0.17967-11.73 3.6297-8.7573 0.93058-8.0763-6.3824 1.6104-13.033 17.264-14.769 20.211-26.102 44.32-2.3632 5.0274-4.639 9.1406-5.0572 9.1406-1.8564 0-1.7031-1.583 0.84367-8.7085 2.9322-8.2041 2.9354-9.699 0.0131-6.19l-1.8672 2.2422-0.0312-2.4517c-0.0172-1.3484 0.8875-3.6196 2.0103-5.0471 1.8857-2.3973 1.9215-2.6831 0.46875-3.7454-1.9608-1.4338-2.0105-2.9489-0.13114-4.0007 1.0828-0.60599 1.2327-1.3715 0.60223-3.0759-0.81888-2.2137-0.91705-2.1572-4.0197 2.3122-5.46 7.85-10.6 11.8-15.35 11.8-1.592 0-1.9824-3.3018-0.49886-4.2188 3.8526-2.381-0.22587-3.8599-5.07-1.8384-1.8457 0.7702-1.8771-2.7218-0.0656-7.3022 0.49-1.26 0.16-1.64-1.44-1.64-1.88 0-2.0189-0.32398-1.4464-3.3754 0.46633-2.4857 0.22875-3.8223-0.90132-5.071-1.4034-1.5507-1.4085-1.9393-0.0601-4.5468 1.8221-3.5237 1.8284-3.8818 0.0681-3.8818-1.9981 0-1.8033-4.6464 0.37946-9.052 5.5505-11.203 6.7314-18.605 4.1275-25.87-1.5031-4.1937-1.5031-4.7125 0-8.9062 2.4138-6.7347 2.1428-10.372-0.82856-11.117-2.6523-0.66568-2.6196-2.6601 0.13524-8.2454 3.4858-7.0673-0.62421-4.7197-4.7954 2.7392-4.0352 7.2157-7.9244 9.2507-7.9244 4.1464 0-1.0008-0.42187-1.8197-0.9375-1.8197-0.51562 0-0.9375 0.56743-0.9375 1.261 0 0.69352-0.79173 1.9775-1.7594 2.8532-2.4306 2.1997-9.4736 0.20129-9.5218-2.7018-0.0294-1.7746-0.13559-1.7558-1.875 0.33212-2.4853 2.9832-2.3883 7.1428 0.20901 8.962 2.8314 1.9832 1.4529 2.9204-2.7632 1.8789-2.2154-0.54727-3.8494-1.644-4.4338-2.9761-1.3971-3.1844-5.397 0.60165-7.4416 7.0436-0.82659 2.6044-2.4142 2.7504-2.4142 0.22208 0-4.3174-4.1453-0.13311-5.2272 5.2764-0.46977 2.3488-0.15076 3.1073 1.8614 4.4257 1.3356 0.8751 2.4283 2.0689 2.4283 2.6528 0 0.58398 1.0547 2.4445 2.3438 4.1346 3.6374 4.7688 2.8731 7.7844-1.554 6.1319-1.2078-0.45081-3.1004-0.47908-4.2059-0.0628-1.4781 0.55654-2.8287 0.15275-5.104-1.5259-4.0824-3.0119-9.0182-3.0963-10.147-0.17337-0.44822 1.1602-1.4941 3.7969-2.3242 5.8594-2.2814 5.6686-2.3423 8.4375-0.18556 8.4375 1.1832 0 2.138-1.0284 2.8125-3.0294 1.7158-5.0902 4.3423-6.2811 10.118-4.5879 2.6639 0.78089 5.1873 1.2073 5.6075 0.94757 0.42026-0.25973 0.7641 0.62059 0.7641 1.9563 0 4.4816 4.2339 3.9033 5.9316-0.81017 0.20582-0.57141 0.65045-0.78529 0.98808-0.47529 0.33762 0.31001-0.0239 1.7866-0.80338 3.2812-1.7563 3.3678-1.8125 5.0613-0.16784 5.0613 1.7928 0 4.1371-2.8838 4.5129-5.5516 0.17592-1.2487 0.7919-2.4256 1.3688-2.6153 1.5616-0.51354 0.42816 4.4038-1.723 7.4752-4.1222 5.8857 0.42764 10.633 8.7321 9.1112 5.1974-0.95251 5.3386-0.77169 1.7536 2.2449-3.2987 2.7757-6.251 2.4588-16.14-1.7322-1.2336-0.52282-1.6406-0.2497-1.6406 1.1008 0 0.98786-0.6194 2.615-1.3764 3.6159-1.7998 2.3795-1.8407 6.0386-0.06745 6.0386 0.81767 0 1.7984 1.6039 2.4362 3.9844 2.318 8.65 5.067 11.95 9.951 11.95 2.4321 0 3.1981 0.45369 3.6228 2.146 1.0624 4.2329-2.4938 9.5235-3.9139 5.8228-1.0577-2.7562-3.9963-1.5127-6.093 2.5781-1.1648 2.2726-2.2252 3.4457-2.4683 2.7305-0.23442-0.68965 0.04311-1.7232 0.61674-2.2969 2.1824-2.1824 1.2742-7.2305-1.3008-7.2305-1.4978 0-2.3438-0.52756-2.3438-1.4616 0-2.2581-1.752-0.64748-3.284 3.019-1.4847 3.5535 1.7506 11.568 4.67 11.568 1.3079 0 2.3308 2.843 2.3512 6.535 0.03001 5.43 2.2799 12.215 4.0505 12.215 1.4582 0 1.6329 0.47085 1.0906 2.9398-0.61586 2.804-0.53266 2.9115 1.8005 2.3259 2.5656-0.64393 3.168 0.19992 1.4029 1.9651-1.3323 1.3323-0.12251 3.3699 1.6069 2.7063 0.72128-0.27679 1.3114-0.0946 1.3114 0.40483 0 0.49944-0.38954 0.90808-0.86565 0.90808-0.4761 0-0.23426 1.2656 0.53742 2.8125 2.1877 4.3854 5.9532 1.1535 5.9532-5.1097 0-1.3147 0.39698-2.3903 0.88217-2.3903 1.632 0 2.0699 1.8912 1.1437 4.9402-2.1613 7.115-2.1833 8.1848-0.16871 8.1848 1.394 0 1.8929 0.61762 1.8929 2.3438 0 1.4714 0.53006 2.3438 1.4241 2.3438 1.0509 0 1.27 0.61419 0.83587 2.3438-0.45646 1.8187-0.22747 2.3438 1.0222 2.3438 1.7316 0 1.6591 1.9834-0.35999 9.8438-2.1199 8.2528-2.2048 8.9062-1.1565 8.9062 0.57573 0 1.0468-0.6087 1.0468-1.3527 0-2.3686 3.9345-8.2128 4.8875-7.2598 0.83608 0.83608-0.21839 6.3177-2.1076 10.956-0.42001 1.0312-0.98381 2.9297-1.2529 4.2188-1.7891 8.571-2.9575 11.515-4.9264 12.412-1.1544 0.52598-2.5845 2.2727-3.178 3.8816-0.59348 1.6089-1.4657 3.6578-1.9384 4.5532-1.0893 2.0637-1.0991 3.5284-0.0236 3.5284 0.45964 0 1.489-1.6326 2.2874-3.6281 1.2401-3.0994 3.0274-4.8094 5.0267-4.8094 1.1208 0-0.93192 6.9942-3.5123 11.968-1.5193 2.9284-2.7624 6.0089-2.7624 6.8455 0 1.9849-2.5117 4.2026-6.7796 5.9858-1.8863 0.78816-3.7693 1.9836-4.1844 2.6565-0.4151 0.67292-4.3407 4.2102-8.7235 7.8606-13.537 11.275-27.307 27.036-29.137 33.35-1.8082 6.2375 3.8223 28.81 8.7722 35.168 0.50428 0.64771 1.1968 2.5462 1.5388 4.2188 0.64951 3.1757 2.6861 4.051 3.8038 1.6348 4.2515-9.1903 7.3918-12.805 6.7287-7.745-0.36957 2.8202-9.209 18.814-12.182 22.042-4.5664 4.9579-7.8682 2.4148-3.5583-2.7406 3.3489-4.0058 3.8006-6.5119 2.0158-11.185-1.747-4.57-3.295-4.66-3.295-0.18 0 3.6654-5.6458 13.862-9.4456 17.06-3.383 2.8466-4.6169 3.0545-4.6169 0.7776zm11.892-70.7c1.194-1.12 2.17-2.54 2.17-3.16 0-1.31 18.393-19.246 22.236-21.684 5.1963-3.2963 11.752-9.2588 12.587-11.448 1.1507-3.0169 0.1636-3.7616-1.6168-1.2197-0.79082 1.129-1.7824 2.0528-2.2035 2.0528-4.8246 0-23.434 15.867-30.317 25.85-6.842 9.9231-8.2574 14.686-2.8563 9.6119zm25.477-35.46c0.5875 0 1.0682-0.67854 1.0682-1.5079 0-2.054-4.1378-0.9961-8.2031 2.0973-4.9961 3.8017-3.8356 5.5035 1.5099 2.2144 2.5062-1.5421 5.0375-2.8038 5.625-2.8038zm6.686-22.5c1.1446-3.8672 2.234-7.5586 2.421-8.2031 0.55767-1.9222 3.2113-1.3412 3.2113 0.70313 0 1.0312 0.42188 1.875 0.9375 1.875s0.9375-0.42188 0.9375-0.9375c0-0.51563 0.84375-0.9375 1.875-0.9375 1.223 0 1.875 0.625 1.875 1.7973 0 0.98851-0.84375 3.7657-1.875 6.1715s-1.875 5.2673-1.875 6.359c0 3.1506 1.5018 0.6968 2.7443-4.484 0.79083-3.2974 2.2458-5.8377 4.9061-8.5658 3.7531-3.8488 3.7695-3.8971 2.1651-6.3458-1.3189-2.013-1.5007-3.6455-0.98658-8.8626 0.61961-6.2881-0.90073-10.6-2.707-7.6775-0.33414 0.54067-1.0045 0.98303-1.4897 0.98303-1.1786 0-1.133-3.4844 0.0553-4.2188 2.1336-1.3186 1.0829-10.643-1.3812-12.257-2.9317-1.9209-10.652-1.0588-13.983 1.5616-1.2512 0.9842-2.9535 1.7895-3.7828 1.7895-0.82936 0-2.0836 1.3711-2.7872 3.0469-0.70362 1.6758-1.9624 4.6432-2.7973 6.5943-1.9716 4.6074-1.9267 8.1343 0.12261 9.6339 1.3431 0.9828 1.6616 2.787 1.7562 9.9471 0.14302 10.825 0.10458 10.589 1.5296 9.4061 0.89367-0.74167 1.1753-0.37497 1.1719 1.5258-0.01113 6.1583 4.0807-0.49098 4.2295-6.8728 0.04706-2.0198 4.2458-5.6672 5.0416-4.3797 0.5762 0.9323-2.9999 13.373-4.21 14.645-0.466 0.49-0.847 2.15-0.847 3.7 0 4.1966 1.3791 1.9858 3.7426-6zm-8.4302-6.9759c0-1.2586 0.40345-2.5378 0.89656-2.8425 0.4931-0.30475 0.68015-1.118 0.41566-1.8073-0.44424-1.1577 2.458-7.3821 4.3855-9.4055 1.9907-2.0897 1.811 0.68749-0.34991 5.4075-1.2895 2.8167-2.632 6.4297-2.9832 8.0288-0.75879 3.4548-2.3646 3.8752-2.3646 0.61907zm5.352-46.462c2.6704-5.4404 2.6448-6.42-0.19573-7.5-2.2242-0.84562-3.284-2.8125-1.5155-2.8125 0.45551 0 1.0298-1.0547 1.2762-2.3438 0.45939-2.4032-0.54677-3.1682-1.704-1.2957-1.581 2.56-2.085 7.39-0.771 7.39 2.0371 0 1.5414 2.0794-0.99713 4.1835-1.2676 1.0506-2.5873 3.1036-2.9327 4.5622-1.1453 4.8365 4.2371 3.1184 6.8393-2.1832zm165.18-23.46c-0.98886-4.6109-0.77585-9.5873 0.69562-16.252 0.54976-2.4898 0.45248-2.6055-1.371-1.6296-4.1142 2.2018-4.165 14.188-0.0924 21.798 1.6161 3.0198 1.9214 1.4625 0.76781-3.9167zm-199.6-0.77c0-0.43542 1.0542-2.0174 2.3426-3.5156 1.8504-2.1516 2.3428-3.7514 2.3438-7.614 0.0015-6.4421 2.4062-11.482 5.8027-12.161 2.5257-0.50514 4.2304-3.159 3.151-4.9054-1.1133-1.8013 1.8298-9.4663 4.937-12.858 3.1093-3.394 3.1961-3.6941 2.6317-9.0946-0.32105-3.0717-0.58373-7.2104-0.58373-9.1973 0-2.5861-0.39955-3.6125-1.4062-3.6125-0.86593 0-1.4062 0.87927-1.4062 2.2884 0 1.2586-0.42188 2.5492-0.9375 2.8678-0.51562 0.31868-0.9375 1.6387-0.9375 2.9333 0 2.3309-3.5574 8.1976-7.48 12.336-1.1178 1.1791-2.6885 4.1322-3.4906 6.5625-0.80207 2.4302-3.5588 7.3375-6.1261 10.905-4.6238 6.4253-4.657 6.5223-3.5253 10.3 0.62835 2.0972 1.2377 5.9626 1.354 8.5896 0.11636 2.627 0.51633 5.2695 0.88884 5.8723 0.78238 1.2659 2.4416 1.4726 2.4416 0.30419zm204.33-43.434c0.0254-1.8943-0.35422-5.4802-0.84357-7.9688-0.48934-2.4886-1.3518-7.9848-1.9165-12.214-1.1515-8.6231-3.4426-16.217-4.8928-16.217-1.0272 0-0.38882 11.816 1.1903 22.031 0.47824 3.0938 0.90893 10.898 0.95708 17.344l0.0876 11.719 2.6859-5.625c1.4772-3.0938 2.7067-7.1748 2.732-9.0691zm-14.139-6.8901c0.54072-6.6912 0.75868-14.064 0.48437-16.385-0.52912-4.4757-0.94839-12.534-1.1666-22.422-0.073-3.3086-0.37315-5.7752-0.66701-5.4813-0.29387 0.29386-0.72088 12.915-0.94892 28.047-0.22805 15.132-0.60598 28.989-0.83986 30.794l-0.42523 3.2812 1.29-2.8342c0.70952-1.5588 1.7324-8.3088 2.2732-15zm-101.71-11.06c1.9978-2.1568 5.6977-6.9736 8.222-10.704 5.2914-7.8196 8.7361-10.094 14.012-9.2501 3.8506 0.61574 5.9822-0.9333 3.328-2.4186-0.85-0.47-1.54-1.4-1.54-2.07 0-0.66504-1.08-1.7012-2.4-2.3027-2.3487-1.0701-2.3859-1.2366-1.7402-7.7891 0.84365-8.5617-0.32111-7.9483-4.2543 2.2405-5.7868 14.99-13.701 27.492-19.991 31.576-2.0082 1.3042-3.4898 3.0226-3.4898 4.0476 0 2.7811 3.6081 1.2507 7.8511-3.33zm69.48-2.5152c2.7034-7.5067 4.0418-15.573 2.4173-14.569-1.633 1.0092-4.5239 10.317-5.1071 16.444-0.6075 6.3821-0.1755 6.081 2.6897-1.875zm-36.947-28.828c4.6748-9.0885 19.071-28.359 21.186-28.359 1.6109 0 1.5336 2.656-0.1637 5.625-1.9001 3.3238-1.7249 4.0295 0.87689 3.5321 3.8122-0.72874 4.7382 0.51085 2.9939 4.0075-1.7627 3.5334-1.7978 3.7104-0.73689 3.7104 0.43456 0 1.7836-1.9317 2.9979-4.2926 1.8381-3.5738 2.5744-4.2225 4.3974-3.874 1.8575 0.35509 2.5451-0.30904 4.5341-4.3793 1.2895-2.6388 3.0604-5.8164 3.9354-7.0613l1.5909-2.2635-10.721 0.65115c-8.1287 0.4937-11.163 1.041-12.548 2.2635-5.0342 4.4423-21.227 28.852-21.227 31.999 0 1.8796 1.5453 1.0445 2.8842-1.5586zm-97.164-6.4593c2.7402-5.9854 2.8953-6.9 1.1705-6.9-1.3078 0-5.3288 8.7214-5.3288 11.558 0 2.7312 1.5917 0.94827 4.1582-4.6578zm-8.2498-1.9425c1.0823-3.7509 1.052-3.8941-0.60517-2.8592-0.95948 0.59921-1.5656 1.3789-1.3469 1.7327 0.21866 0.3538-0.44144 0.86267-1.4669 1.1308-2.7481 0.71863-2.5561 4.6435 0.20761 4.2439 1.5306-0.2213 2.3698-1.3314 3.2114-4.2483zm90.602-9.1351c1.9264-4.3404 3.7555-8.551 4.0648-9.357 0.70358-1.8335-1.3923-1.948-2.8162-0.15386-1.9034 2.3984-5.041 2.7292-5.7159 0.6026-1.2934-4.0752-4.9778 0.02-5.8468 6.4987-0.47808 3.5644-0.37248 3.7818 1.725 3.5514 1.9513-0.21436 2.2538 0.1702 2.3879 3.0358 0.22109 4.7225 0.20278 4.6718 1.5069 4.1713 0.65547-0.25152 2.7679-4.0085 4.6942-8.3489zm-94.792 2.9469c0.35322-2.4815 1.3062-5.5253 2.1178-6.7639 2.013-3.07 1.921-3.25-1.651-3.25-3.8747 0-4.5743 0.64376-3.1603 2.908 0.87485 1.4009 0.76596 2.7211-0.52393 6.3529-2.0626 5.8073-2.0522 5.93 0.4727 5.57 1.7331-0.24713 2.2134-1.0895 2.7432-4.8115zm104.74-6.7359c1.6655-2.3191 2.7625-4.6463 2.4379-5.1715-0.94859-1.5348-2.3624-0.08-4.2882 4.4129-2.7954 6.5214-2.4035 6.6821 1.8504 0.75868zm-114.51-4.43c2.411-1.18 2.789-2.59 0.693-2.59-1.524 0-9.834 3.69-9.834 4.36 0 0.66794 6.8615-0.66662 9.1406-1.7779zm92.659-8.22c2.2781 0 4.1421-0.42188 4.1421-0.9375 0-1.6644-9.0066-1.1082-10.432 0.64428-1.1326 1.3924-1.0811 1.5046 0.43064 0.9375 0.94452-0.35436 3.5812-0.64428 5.8594-0.64428zm121.32-2.28c7.3962 1.0749 19.805 1.2331 19.476 0.24835-0.95409-2.8623-15.93-5.1255-20.707-3.1294-1.8682 0.78058-4.6414 1.4192-6.1626 1.4192-3.6487 0-6.2292 0.98816-4.8334 1.8508 0.58058 0.35883 3.0417 0.34146 5.4692-0.0386s5.4683-0.53775 6.7574-0.3504zm-92.38-0.67846c1.8658-0.85013 2.901-0.82126 4.6794 0.13045 1.5895 0.85068 3.5102 0.99266 6.3201 0.46718 2.2201-0.4152 6.6734-0.69029 9.896-0.61133 6.8378 0.16755 7.8323-1.1819 1.5098-2.0485-13.944-1.9112-37.838-0.20046-37.838 2.7091 0 0.94076 13.159 0.38913 15.433-0.64695zm-104.84-4.26c3.296-1.4487 3.4231-1.629 1.3808-1.9585-2.5378-0.40956-6.8529 1.5411-6.1009 2.7579 0.63812 1.0325 0.49858 1.0561 4.7201-0.79934zm10.661-7.875c7.0513-1.4087 13.756-2.6066 18.537-3.3121 6.4936-0.95811 5.8537-2.4385-0.85131-1.9695-6.5949 0.46124-25.301 3.8209-26.951 4.8403-2.072 1.2806-1.0623 2.6337 1.5304 2.0509 1.418-0.31873 4.8984-1.0431 7.7344-1.6096zm2.3438-7.5495c2.5781-0.46894 6.7969-1.2569 9.375-1.7511 6.8896-1.3206 15.99-2.7643 23.438-3.7182 3.6094-0.46232 10.148-1.3241 14.531-1.915 31.999-4.3145 59.346-6.3272 99.299-7.3082 27.842-0.68365 27.703-0.65006 24.206-5.8515-2.7272-4.0556-7.8237-4.7724-22.253-3.1298-5.415 0.61644-16.806 1.6132-25.314 2.215-8.5078 0.6018-18.633 1.7222-22.5 2.4897-3.8672 0.76752-10.828 1.8161-15.469 2.3302-4.6406 0.51409-11.391 1.5473-15 2.2961-3.6094 0.74875-8.3349 1.3617-10.501 1.3621-2.1663 0.00042-6.385 0.64424-9.375 1.4307s-7.9676 1.8431-11.061 2.3482c-3.0938 0.50503-7.7344 1.3679-10.312 1.9175-2.5781 0.54959-7.4297 1.3387-10.781 1.7536-9.2861 1.1495-31.451 5.8772-32.508 6.9338-1.6552 1.6552 1.1544 2.1411 5.0849 0.87942 2.4499-0.7864 6.5637-1.8135 9.1418-2.2824zm108.28 0.3228c11.394-1.271 40.961-1.3518 48.281-0.13196 10 1.6664 20.156 2.1764 20.156 1.0121 0-0.58188-1.0427-1.058-2.317-1.058-1.2744 0-4.5439-0.94922-7.2656-2.1094-4.2383-1.8066-5.9579-2.026-11.98-1.5288-8.5166 0.70324-40.321 0.87008-38.666 0.20282 4.8874-1.9704-6.2953-2.9479-14.491-1.2667-2.4746 0.50764-8.0852 1.1186-12.468 1.3576-17.581 0.95883-31.952 3.5759-27.94 5.0883 2.1271 0.80201 35.495-0.3172 46.69-1.5661zm-112.97-5.86c3.6094-0.55484 9.0938-1.6484 12.188-2.4302 3.0938-0.7818 8.5781-1.9696 12.188-2.6395 19.42-3.6046 24.047-4.5359 30.469-6.1333 3.8672-0.96189 9.3516-1.9924 12.188-2.29 2.8359-0.29758 7.4766-0.94662 10.312-1.4423 2.8359-0.49568 9.375-1.3812 14.531-1.9679 9.2326-1.0505 18.042-3.5758 12.656-3.628-4.6052-0.0446-45.892 4.295-53.906 5.666-3.0938 0.52927-8.3672 1.3553-11.719 1.8356-15.531 2.2259-42.626 7.5596-47.161 9.284-4.299 1.6345-4.6692 6.5021-0.40536 5.3307 1.1539-0.317 5.0511-1.0303 8.6605-1.5852zm3.9727-11.75c5.0338-1.3471 9.9961-2.602 11.027-2.7886 1.0312-0.1866 5.8828-1.0271 10.781-1.8678 4.8984-0.84067 10.805-1.9038 13.125-2.3626 2.3203-0.45877 7.8047-1.286 12.188-1.8383 4.3828-0.55227 10.5-1.3602 13.594-1.7953 3.0938-0.43516 9.8438-1.2409 15-1.7906 5.1562-0.54967 12.961-1.4552 17.344-2.0124 35.357-4.4948 70.479-4.9911 72.675-1.0269 1.3184 2.3794 1.3448 2.3197 0.77668-1.7557-0.32343-2.3203-0.71207-4.3663-0.86364-4.5467-0.50744-0.6038-28.63-0.18732-29.643 0.439-0.54992 0.33987-6.9571 0.99401-14.238 1.4536-16.396 1.0351-31.807 2.3731-40.426 3.51-3.6094 0.4761-9.5156 1.1432-13.125 1.4826-3.6094 0.3393-7.6172 0.99384-8.9062 1.4546-1.2891 0.4607-5.7188 1.0543-9.8438 1.3191s-10.664 0.925-14.531 1.4671c-3.8672 0.54209-9.9844 1.3781-13.594 1.8578-34.48 4.5828-36.039 4.998-36.079 9.6097-0.02045 2.3369 3.7605 2.1295 14.74-0.80867zm-8.192-14.4c6.456-1.1246 25.323-4.642 30.938-5.7677 4.5315-0.90857 11.938-2.0053 23.906-3.54 4.125-0.52894 10.664-1.4226 14.531-1.9859 29.483-4.2947 50.572-6.1847 81.655-7.3179 20.765-0.75706 24.74-4.0506 19.951-16.53-0.57805-1.5064-41.277-1.3628-45.355 0.16-0.77344 0.28876-6.0469 0.87617-11.719 1.3053-5.6719 0.42918-16.008 1.212-22.969 1.7397-13.766 1.0434-17.181 1.5924-16.524 2.6561 0.23548 0.38102 7.1082 0.18184 15.273-0.44265 8.1645-0.62448 23.221-1.5839 33.459-2.132s18.987-1.2272 19.443-1.509c1.1713-0.72393 12.186 1.458 14.463 2.8651 1.0425 0.64412 3.6792 1.4725 5.8594 1.8408 3.0144 0.50928 3.9639 1.0912 3.9639 2.4293 0 2.9313-2.6492 3.461-18.236 3.6461-8.2252 0.0977-15.186 0.31017-15.469 0.47214-0.28268 0.16196-7.6599 0.58035-16.394 0.92977-8.7339 0.34941-16.278 0.8816-16.765 1.1826-0.48709 0.30103-5.5756 0.92902-11.308 1.3955-19.458 1.5836-25.405 2.3468-37.141 4.7666-6.4453 1.329-15.094 2.8715-19.219 3.4277-33.06 4.4584-39.163 5.891-39.675 9.3133-0.34198 2.2878 0.10268 2.3542 7.3308 1.0951zm7.076-11.868c6.1629-1.3556 13.736-2.8079 16.83-3.2272 3.0938-0.41935 8.3672-1.2163 11.719-1.7711 3.3516-0.55474 8.11-1.2721 10.574-1.5941 8.8389-1.155 5.8813-2.4383-4.1203-1.7878-39.833 2.5907-52.567 4.9787-50.821 9.5299 0.70436 1.8355 3.0075 1.6681 15.818-1.1496zm-10.093-9.3082c1.917-0.80325 5.173-1.5686 7.2355-1.7008 2.0625-0.13219 6.012-1.0011 8.7766-1.9309 3.1734-1.0673 6.5293-1.5212 9.1026-1.2311 2.4296 0.27385 4.754-0.006 5.7547-0.69222 0.92328-0.63339 7.5849-2.0624 14.804-3.1755 7.2188-1.1131 15.234-2.4252 17.812-2.9158 2.5781-0.49056 7.2188-1.1056 10.312-1.3668 3.0938-0.26118 14.273-1.3503 24.844-2.4203 25.315-2.5626 40.276-3.6997 59.052-4.4882 13.675-0.57426 15.494-0.83846 15.772-2.2898 0.4413-2.3079 1.3078-2.3284-51.386 1.2153-21.947 1.476-22.721 1.5487-39.844 3.7434-33.98 4.3554-45.044 5.2332-46.869 3.7185-1.0583-0.8783-1.7334-0.90617-2.6914-0.11112-1.9389 1.6092-11.469 4.4032-19.346 5.672-13.065 2.1045-19.688 4.8535-19.688 8.1728 0 1.6592 2.0778 1.594 6.3582-0.19952zm11.455-14.178c2.3203-0.85313 6.75-1.8586 9.8438-2.2343 3.0938-0.37571 7.5234-1.1866 9.8438-1.8019 2.3203-0.61533 6.3281-1.4766 8.9062-1.914 2.5781-0.43738 6.7969-1.2698 9.375-1.8498 2.5781-0.57999 7.0078-1.4429 9.8438-1.9176 2.8359-0.47469 7.1258-1.2722 9.533-1.7722 2.4072-0.50001 8.5664-1.3391 13.687-1.8645 10.063-1.0327 12.405-1.6177 12.405-3.0993 0-0.60745-1.796-0.7306-4.9219-0.33749-2.707 0.34044-7.1445 0.86888-9.861 1.1743-2.7166 0.30542-5.1672 0.9243-5.446 1.3753-0.27872 0.45098-2.9076 0.83516-5.8421 0.85372-7.0327 0.04447-28.656 3.2422-37.679 5.5722-2.3203 0.59915-6.1172 1.4702-8.4375 1.9357-2.3203 0.46551-5.9062 1.3032-7.9688 1.8614-2.0625 0.55829-5.0156 1.3563-6.5625 1.7734-1.5469 0.41706-4.2891 1.4135-6.0938 2.2144l-3.282 1.455 4.219 0.063c2.3203 0.03459 6.1172-0.63518 8.4375-1.4883zm-3.282-12.641c6.254-1.6706 6.8046-1.9514 4.7663-2.4307-0.98792-0.2323-3.3082 0.02307-5.1562 0.56749-1.848 0.54443-4.5202 1.2297-5.9382 1.5228-1.418 0.292-2.578 0.954-2.578 1.47 0 0.95419 2.1019 0.68748 8.9062-1.1301zm143.44-0.64016c23.273-1.3554 21.566-0.7592 23.836-8.3248 2.7615-9.2049 1.2977-10.843-11.881-13.298-4.0029-0.74549-6.9718-0.80187-9.375-0.17802-2.964 0.76943-42.514 1.3964-57.892 0.91767-7.4798-0.23283-31.311 1.9558-37.969 3.487-3.3516 0.77083-9.0469 1.7683-12.656 2.2166-3.6094 0.4483-9.0089 1.4842-11.999 2.3019-2.99 0.81774-6.365 1.5017-7.5 1.52-1.135 0.01827-3.1183 0.65749-4.4074 1.4205-2.5868 1.5311 9.7427 1.1515 16.875-0.51952 1.8047-0.42282 7.7109-1.2547 13.125-1.8487 5.4141-0.59395 10.898-1.2942 12.188-1.5561 1.2891-0.26193 14.578-0.85541 29.531-1.3189 14.953-0.46344 30.141-1.0645 33.75-1.3357 3.6094-0.27118 12.469-0.95359 19.688-1.5165 10.818-0.8435 14.114-0.78694 18.75 0.32176l5.625 1.3452-0.29625 5.0655c-0.40722 6.963-0.57403 7.0288-19.605 7.7424-23.933 0.89738-28.479 1.2664-29.617 2.4041-0.557 0.557-2.9323 1.0424-5.2784 1.0786-2.3461 0.03624-5.1094 0.44125-6.1406 0.90001-2.2706 1.0101 16.017 0.64416 41.25-0.82545zm-157.07-3.36c0.67169-1.2551 2.325-2.6683 3.674-3.1406 1.349-0.47228 3.9294-1.3606 5.734-1.974 1.8047-0.6134 7.5875-2.5845 12.851-4.3802 9.3846-3.2019 13.851-4.3654 23.243-6.0552 20.185-3.6316 25.863-4.4641 37.684-5.526 16.909-1.5189 19.404-4.1801 3.3318-3.5538-9.3439 0.36416-15.235 1.0452-29.766 3.4411-3.0938 0.51011-9.4219 1.3633-14.062 1.8959-8.8829 1.0196-12.109 1.8065-29.531 7.2042-15.478 4.795-15.938 5.089-15.938 10.176 0 4.6808 0.94864 5.3336 2.7794 1.9127zm13.337-17.002c5.8313-1.3808 13.345-3.2604 16.696-4.1768 9.7564-2.6677 14.948-3.6233 23.355-4.2989 4.3373-0.34856 8.978-1.2335 10.312-1.9666 2.2938-1.26 2.1703-1.3021-2.261-0.77093-2.5781 0.30903-8.4844 0.9712-13.125 1.4715-4.6406 0.50028-10.969 1.327-14.062 1.8371-3.0938 0.5101-8.5781 1.3281-12.188 1.8179-9.9188 1.3458-18.615 3.9091-21.201 6.249-1.8594 1.6827-1.4387 3.6184 0.61512 2.8302 0.69074-0.26506 6.027-1.6117 11.858-2.9925zm140.2-6.495c5.0483-0.44913 11.033-1.9269 9.6247-2.3767-0.41928-0.13394-7.562-0.62984-35.012-2.4308-10.962-0.71917-20.077 1.8443-18.075 5.0833 0.52807 0.85442 33.08 0.64788 43.462-0.27577zm-144.6-1.856c2.0625-0.67788 5.6484-1.4808 7.9688-1.7843 2.3203-0.30347 6.3281-0.99121 8.9062-1.5283 8.563-1.7839 35.688-5.2097 48.459-6.1201 9.6522-0.6881 17.557 0.49513 19.579 2.9305 1.7341 2.0894 16.458 1.8103 20.088-0.38088 1.5469-0.93377 4.9219-2.2273 7.5-2.8746 2.5781-0.64727 6.3902-1.5988 8.4714-2.1144 6.5667-1.6271 45.678 0.21522 48.95 2.3058 0.6711 0.42874 1.1719 0.32441 1.1719-0.24415 0-0.54606-0.59154-0.99283-1.3145-0.99283-0.723 0-1.7554-1.2645-2.2941-2.8101l-0.97961-2.8101-34.034 0.04956c-19.878 0.02894-35.789 0.45245-38.253 1.0182-2.3203 0.53276-10.969 1.0811-19.219 1.2185-14.135 0.23545-21.123 0.93436-33.281 3.3289-2.8359 0.55851-7.6875 1.4063-10.781 1.8841-3.0938 0.47773-7.5234 1.3139-9.8438 1.8581-2.3203 0.54422-5.9062 1.233-7.9688 1.5305-3.4611 0.49935-11.367 2.8488-17.578 5.2239-1.418 0.54221-2.5781 1.4017-2.5781 1.9099 0 0.50824 0.73828 0.63387 1.6406 0.27919 0.90234-0.35468 3.3281-1.1995 5.3906-1.8774zm166.8 1.7526c4.4291-1.6996 0.004-2.8514-6.1343-1.5967-3.0545 0.62434-3.0829 0.66979-0.82031 1.3128 3.126 0.88837 5.1627 0.97152 6.9546 0.28392zm-170.08-7.869c4.3828-1.5331 8.9119-2.7931 10.065-2.8 1.1528-0.0069 3.8949-0.44733 6.0938-0.97873 2.1988-0.5314 9.2215-1.9793 15.606-3.2176s12.052-2.6949 12.594-3.2369c1.6979-1.6979-0.20861-2.3625-3.4327-1.1966-1.6994 0.61452-4.9584 1.1323-7.2421 1.1507-2.2837 0.01836-6.6834 0.6849-9.7772 1.4812-3.095 0.797-7.525 1.82-9.845 2.275-14.208 2.7826-23.438 5.8963-23.438 7.9069 0 1.8763 0.09864 1.8618 9.375-1.383zm176.48-15.934c1.8418-0.0087 0.40334-2.9797-1.875-3.8726-3.239-1.2693-59.844-1.9195-66.085-0.75907-2.4443 0.45449-5.0544 0.59218-5.8002 0.30598-1.6416-0.62994-0.86418-3.1777 0.96962-3.1777 0.71827 0 1.306-0.42188 1.306-0.9375 0-1.5387-3.631-1.0801-14.892 1.881-8.6847 2.2837-12.556 2.8065-20.783 2.8065-5.5604 0-10.775 0.25514-11.587 0.56699-2.9959 1.1496-0.26576 2.2483 5.8326 2.3473 3.45 0.05596 8.804 0.3797 11.898 0.71942 3.0938 0.33972 26.93 0.50638 52.969 0.37034 26.039-0.13603 47.66-0.24884 48.047-0.25067zm-16.38-12.031c0.33581-1.0097-1.9639-1.1628-12.11-0.80628-20.219 0.71051-23.351 2.3589-4.1645 2.1913 12.266-0.10718 15.954-0.42105 16.275-1.385zm-48.54-2.031c3.3516-0.47004 9.2578-1.3776 13.125-2.0169 3.897-0.64417 15.682-1.1858 26.438-1.2151 18.242-0.04966 25.442-1.0379 20.36-2.7943-3.6326-1.2554-16.093-3.3186-16.928-2.8028-0.52454 0.32419-7.9871 0.95509-16.583 1.402-14.148 0.73556-19.292 1.3948-35.73 4.5794-5.619 1.0886-7.788 0.22613-5.7143-2.2724 0.66003-0.79529 1.8377-1.446 2.6171-1.446 2.75 0 8.5977-2.1643 8.0858-2.9926-0.80651-1.305-23.903 0.16847-26.318 1.679-2.1433 1.3404-15.002 3.972-23.51 4.8114-19.303 1.9044 3.8028 2.4516 26.814 0.63502 6.7695-0.53443 6.8717-0.50929 6.6931 1.6466-0.0997 1.2041-0.13465 2.4162-0.0775 2.6934 0.10616 0.51568 9.8404-0.37974 20.729-1.9068zm84.64 475.58c-2.1846-5.6928 14.68-25.826 47.545-56.76 8.6143-8.1081 12.19-9.4422 12.19-4.5477 0 5.504-9.6039 16.859-42.697 50.483-12.297 12.494-15.594 14.589-17.038 10.825zm-201.28-13.17c0.36525-2.4492 1.8677-6.8256 3.3387-9.7253s2.6746-5.6671 2.6746-6.1498c0-1.9144 21.714-25.609 23.468-25.609 2.005 0 0.70853 2.6595-2.6089 5.3518-1.9336 1.5692-5.625 6.4598-8.2031 10.868-2.5781 4.4081-5.5312 8.4894-6.5625 9.0694-1.8257 1.0269-3.5106 4.2031-8.0851 15.242-2.8195 6.8036-4.9704 7.3135-4.0219 0.95351zm-7.5141-10.312c1.1279-5.0942 2.5083-8.887 4.5299-12.446 3.1972-5.6287 16.544-19.075 21.57-21.731 1.0772-0.56928 3.602-2.4338 5.6106-4.1434 3.4514-2.9375 9.5621-5.7308 10.495-4.7975 1.0167 1.0167-0.91952 3.433-3.661 4.5685-1.6349 0.67721-4.4523 2.5616-6.2608 4.1876s-5.2014 4.1691-7.5399 5.6514c-7.078 4.4866-17.098 17.279-19.734 25.195-2.1097 6.3346-6.2827 9.2627-5.0103 3.5156zm111.34-50.55c0.27493-1.4604 0.77193-4.7135 1.1045-7.229 0.33252-2.5155 1.8362-6.9974 3.3416-9.9597 1.5053-2.9623 2.737-6.0024 2.737-6.7558 0-1.4037 3.1862-11.909 4.6322-15.273 0.44327-1.0312 1.7032-3.9844 2.7998-6.5625 4.285-10.074 7.0993-12.459 7.0993-6.0158 0 1.8476 0.57579 4.0586 1.2795 4.9133 0.72066 0.87528 1.0987 2.7863 0.8655 4.3752-0.32339 2.2034-0.061 2.8211 1.1983 2.8211 3.7102 0 2.0104 7.3021-2.6891 11.552-1.039 0.93963-2.4394 3.049-3.1119 4.6875-0.67254 1.6385-1.9852 3.806-2.9169 4.8166-1.3685 1.4843-8.1281 12.462-11.857 19.256-1.5578 2.8382-5.0426 2.3515-4.4821-0.62594zm-57.118-34.306c1.6971-11.317 7.5827-23.562 7.5827-15.776 0 3.5558 1.8133 3.2638 3.744-0.60286 5.0414-10.096 6.672-23.328 3.5166-28.536-5.8615-9.6756-9.0339-30.084-5.4182-34.856 2.1159-2.7929 3.3095-0.91599 3.3738 5.3055 0.0679 6.5666-0.2492 6.9162 5.1966-5.7308 1.3996-3.2504 3.4376-6.6254 4.5288-7.5 1.0912-0.87457 2.9506-2.9612 4.1319-4.637 2.2257-3.1571 4.5464-3.9464 5.3612-1.8232 0.46296 1.2064-9.0443 21.356-11.366 24.089-1.9133 2.2522-3.0995 12.041-2.4336 20.082 0.6935 8.3744 2.5234 10.627 3.5282 4.3429 1.1214-7.0129 3.5425-6.153 5.0495 1.7935 1.9543 10.305-1.1396 23.025-8.2736 34.016-3.7125 5.7194-6.4227 4.5267-3.1307-1.3777 1.6908-3.0326 3.1238-7.2941 2.4528-7.2941-1.0135 0-4.1675 4.3355-4.1675 5.7287 0 0.89385-1.7835 3.1518-3.9634 5.0177s-4.8166 5.1467-5.8594 7.2907c-2.7523 5.6588-4.6668 5.8917-3.8536 0.46873zm79.3-76.94c0-1.5244 2.2456-4.3169 7.3504-9.1406 7.9915-7.5515 14.084-16.21 14.886-21.156 0.36576-2.2539 1.0003-3.1334 2.2608-3.1334 4.3398 0 0.44768 12.426-5.7259 18.281-1.6311 1.5469-3.8142 4.1836-4.8514 5.8594s-2.3787 3.0725-2.9812 3.1038c-0.60247 0.0313-2.572 1.9041-4.3767 4.1618-3.6843 4.609-6.5625 5.4966-6.5625 2.0238zm-80.342-4.6019c-2.0365-2.2385-1.9216-4.4531 0.23115-4.4531 1.4396 0 3.2361 2.8283 3.2361 5.0946 0 2.0543-1.22 1.8286-3.4673-0.6415zm-14.342-4.31c0-4.57 5.3712-7.3851 9.3217-4.8856 2.1698 1.3728-0.22049 5.6778-3.1525 5.6778-1.2697 0-2.5692 0.42187-2.8879 0.9375-1.235 1.9982-3.2812 0.91951-3.2812-1.7297zm97.062-7.4109c3.7329-8.9752 11.911-16.791 14.012-13.392 1.7185 2.7806-9.3416 16.907-13.237 16.907-2.2198 0-2.2258-0.0268-0.77472-3.5156z"/>
</svg>
